<svg width="92" height="87" viewBox="0 0 92 87" fill="none" xmlns="http://www.w3.org/2000/svg">
<rect y="59.7402" width="26.6116" height="26.6116" rx="13.3058" fill="#4BC0C0"/>
<path d="M12.6397 78.3673V77.8683V78.3673ZM19.2926 76.5377C19.5682 76.5377 19.7916 76.3143 19.7916 76.0388C19.7916 75.7632 19.5682 75.5398 19.2926 75.5398V76.5377ZM15.7 75.5398C15.4245 75.5398 15.2011 75.7632 15.2011 76.0388C15.2011 76.3143 15.4245 76.5377 15.7 76.5377V75.5398ZM16.9973 77.835C16.9973 78.1105 17.2207 78.3339 17.4963 78.3339C17.7719 78.3339 17.9953 78.1105 17.9953 77.835H16.9973ZM17.9953 74.2424C17.9953 73.9668 17.7719 73.7434 17.4963 73.7434C17.2207 73.7434 16.9973 73.9668 16.9973 74.2424H17.9953ZM14.543 78.7379C14.8158 78.6987 15.0052 78.4458 14.966 78.1731C14.9269 77.9003 14.674 77.7109 14.4012 77.75L14.543 78.7379ZM13.9183 74.6105C14.1923 74.6392 14.4378 74.4403 14.4665 74.1662C14.4953 73.8922 14.2964 73.6467 14.0223 73.618L13.9183 74.6105ZM12.6397 77.8683C11.0626 77.8683 9.80835 77.614 8.96824 77.2312C8.10072 76.836 7.81635 76.3816 7.81635 76.0388H6.81842C6.81842 76.982 7.5723 77.6918 8.55449 78.1393C9.56408 78.5993 10.9709 78.8662 12.6397 78.8662V77.8683ZM7.81635 76.0388C7.81635 76.0234 7.83521 75.9026 8.09536 75.6984C8.33785 75.5081 8.70985 75.3116 9.18754 75.1344C10.1391 74.7815 11.4107 74.5419 12.6397 74.5419V73.5439C11.2966 73.5439 9.90714 73.8032 8.84054 74.1988C8.30915 74.3958 7.83282 74.6359 7.47926 74.9134C7.14334 75.177 6.81842 75.5551 6.81842 76.0388H7.81635ZM14.1366 69.7551C14.1366 70.513 13.4673 71.2154 12.6397 71.2154V72.2134C14.0167 72.2134 15.1345 71.0658 15.1345 69.7551H14.1366ZM12.6397 71.2154C11.8121 71.2154 11.1428 70.513 11.1428 69.7551H10.1449C10.1449 71.0658 11.2627 72.2134 12.6397 72.2134V71.2154ZM11.1428 69.7551C11.1428 68.9737 11.8351 68.2216 12.6397 68.2216V67.2237C11.2397 67.2237 10.1449 68.468 10.1449 69.7551H11.1428ZM12.6397 68.2216C13.4442 68.2216 14.1366 68.9737 14.1366 69.7551H15.1345C15.1345 68.468 14.0397 67.2237 12.6397 67.2237V68.2216ZM19.2926 75.5398H17.4963V76.5377H19.2926V75.5398ZM17.4963 75.5398H15.7V76.5377H17.4963V75.5398ZM17.9953 77.835V76.0388H16.9973V77.835H17.9953ZM17.9953 76.0388V74.2424H16.9973V76.0388H17.9953ZM14.4012 77.75C13.8698 77.8263 13.2802 77.8683 12.6397 77.8683V78.8662C13.3232 78.8662 13.9604 78.8215 14.543 78.7379L14.4012 77.75ZM12.6397 74.5419C13.0501 74.5419 13.4838 74.5649 13.9183 74.6105L14.0223 73.618C13.555 73.569 13.0865 73.5439 12.6397 73.5439V74.5419Z" fill="white"/>
<rect x="65.3887" y="22.4824" width="26.6116" height="26.6116" rx="13.3058" fill="#36A2EB"/>
<path d="M79.8906 40.8136H83.8824M73.5039 40.8136L76.4085 40.2283C76.5627 40.1973 76.7043 40.1213 76.8155 40.0101L83.3179 33.5042C83.6296 33.1923 83.6294 32.6867 83.3174 32.375L81.9399 30.9991C81.6281 30.6876 81.1227 30.6878 80.8111 30.9996L74.3081 37.5062C74.1971 37.6172 74.1213 37.7585 74.0902 37.9124L73.5039 40.8136Z" stroke="white" stroke-width="0.997934" stroke-linecap="round" stroke-linejoin="round"/>
<rect width="26.6116" height="26.6116" rx="13.3058" fill="#FF6384"/>
<path d="M7.98242 9.43163H18.627M11.9742 16.4759V12.2493M14.6353 16.4759V12.2493M15.9659 19.2936H10.6436C9.90872 19.2936 9.313 18.6628 9.313 17.8847V10.1361C9.313 9.74701 9.61086 9.43163 9.97829 9.43163H16.6312C16.9986 9.43163 17.2965 9.74701 17.2965 10.1361V17.8847C17.2965 18.6628 16.7008 19.2936 15.9659 19.2936ZM11.9742 9.43163H14.6353C15.0027 9.43163 15.3006 9.11625 15.3006 8.72721V8.02278C15.3006 7.63374 15.0027 7.31836 14.6353 7.31836H11.9742C11.6067 7.31836 11.3089 7.63374 11.3089 8.02278V8.72721C11.3089 9.11625 11.6067 9.43163 11.9742 9.43163Z" stroke="white" stroke-width="0.997934" stroke-linecap="round" stroke-linejoin="round"/>
</svg>
