<svg width="221" height="170" viewBox="0 0 221 170" fill="none" xmlns="http://www.w3.org/2000/svg">
<g filter="url(#filter0_d_867_15337)">
<g clip-path="url(#clip0_867_15337)">
<rect x="1" y="1" width="214.774" height="164.239" rx="4.51207" fill="white"/>
<rect x="14.085" y="10.0234" width="132.204" height="9.92655" rx="1.35362" fill="#D9D9D9"/>
<path d="M0.548828 26.7188H486.273" stroke="#C6C6C6" stroke-width="0.451207"/>
<path d="M21.793 42.998L24.0494 45.0646L26.305 42.998" stroke="#0A090B" stroke-width="0.67681" stroke-linecap="round" stroke-linejoin="round"/>
<rect x="37.0967" y="40.7051" width="25.2676" height="7.21931" rx="0.902413" fill="#D9D9D9"/>
<path d="M66.877 43.4121H114.028" stroke="#6E6E6E" stroke-width="0.451207"/>
<rect x="127.564" y="34.3887" width="18.0483" height="18.0483" rx="9.02413" fill="#FF6384"/>
<path d="M132.979 40.7848H140.198M135.686 45.5623V42.6958M137.491 45.5623V42.6958M138.393 47.4733H134.783C134.285 47.4733 133.881 47.0455 133.881 46.5178V41.2626C133.881 40.9987 134.083 40.7848 134.332 40.7848H138.844C139.093 40.7848 139.295 40.9987 139.295 41.2626V46.5178C139.295 47.0455 138.891 47.4733 138.393 47.4733ZM135.686 40.7848H137.491C137.74 40.7848 137.942 40.5709 137.942 40.3071V39.8293C137.942 39.5655 137.74 39.3516 137.491 39.3516H135.686C135.437 39.3516 135.235 39.5655 135.235 39.8293V40.3071C135.235 40.5709 135.437 40.7848 135.686 40.7848Z" stroke="white" stroke-width="0.67681" stroke-linecap="round" stroke-linejoin="round"/>
<rect x="159.148" y="39.8027" width="38.3526" height="7.21931" rx="0.902413" fill="#D9D9D9"/>
<path d="M21.793 67.8145L24.0494 69.881L26.305 67.8145" stroke="#0A090B" stroke-width="0.67681" stroke-linecap="round" stroke-linejoin="round"/>
<rect x="37.0967" y="65.5215" width="25.2676" height="7.21931" rx="0.902413" fill="#D9D9D9"/>
<path d="M66.877 68.2285H114.028" stroke="#6E6E6E" stroke-width="0.451207"/>
<rect x="127.564" y="59.2051" width="18.0483" height="18.0483" rx="9.02413" fill="#36A2EB"/>
<path d="M137.401 71.6369H140.108M133.069 71.6369L135.039 71.24C135.144 71.2189 135.24 71.1674 135.315 71.092L139.725 66.6796C139.937 66.4681 139.937 66.1251 139.725 65.9138L138.791 64.9806C138.579 64.7694 138.236 64.7695 138.025 64.981L133.615 69.3938C133.539 69.4691 133.488 69.5649 133.467 69.6693L133.069 71.6369Z" stroke="white" stroke-width="0.67681" stroke-linecap="round" stroke-linejoin="round"/>
<rect x="159.148" y="64.6191" width="38.3526" height="7.21931" rx="0.902413" fill="#D9D9D9"/>
<path d="M21.793 92.6309L24.0494 94.6974L26.305 92.6309" stroke="#0A090B" stroke-width="0.67681" stroke-linecap="round" stroke-linejoin="round"/>
<rect x="37.0967" y="90.3379" width="25.2676" height="7.21931" rx="0.902413" fill="#D9D9D9"/>
<path d="M66.877 93.0449H114.028" stroke="#6E6E6E" stroke-width="0.451207"/>
<rect x="127.564" y="84.0215" width="18.0483" height="18.0483" rx="9.02413" fill="#4BC0C0"/>
<path d="M140.649 95.414C140.836 95.414 140.987 95.2625 140.987 95.0756C140.987 94.8887 140.836 94.7372 140.649 94.7372V95.414ZM138.213 94.7372C138.026 94.7372 137.874 94.8887 137.874 95.0756C137.874 95.2625 138.026 95.414 138.213 95.414V94.7372ZM139.092 96.2938C139.092 96.4807 139.244 96.6322 139.431 96.6322C139.618 96.6322 139.769 96.4807 139.769 96.2938H139.092ZM139.769 93.8573C139.769 93.6704 139.618 93.5189 139.431 93.5189C139.244 93.5189 139.092 93.6704 139.092 93.8573H139.769ZM137.428 96.9062C137.613 96.8796 137.741 96.7081 137.715 96.5231C137.688 96.3381 137.517 96.2097 137.332 96.2362L137.428 96.9062ZM137.004 94.1069C137.19 94.1264 137.356 93.9915 137.376 93.8057C137.395 93.6198 137.261 93.4533 137.075 93.4338L137.004 94.1069ZM136.137 96.3164C135.067 96.3164 134.217 96.144 133.647 95.8844C133.059 95.6163 132.866 95.3081 132.866 95.0756H132.189C132.189 95.7153 132.7 96.1968 133.366 96.5003C134.051 96.8122 135.005 96.9933 136.137 96.9933V96.3164ZM132.866 95.0756C132.866 95.0652 132.879 94.9833 133.055 94.8448C133.219 94.7157 133.472 94.5824 133.796 94.4623C134.441 94.223 135.304 94.0604 136.137 94.0604V93.3836C135.226 93.3836 134.284 93.5595 133.56 93.8277C133.2 93.9614 132.877 94.1242 132.637 94.3124C132.409 94.4912 132.189 94.7476 132.189 95.0756H132.866ZM137.152 90.814C137.152 91.328 136.698 91.8044 136.137 91.8044V92.4812C137.071 92.4812 137.829 91.7029 137.829 90.814H137.152ZM136.137 91.8044C135.576 91.8044 135.122 91.328 135.122 90.814H134.445C134.445 91.7029 135.203 92.4812 136.137 92.4812V91.8044ZM135.122 90.814C135.122 90.284 135.591 89.774 136.137 89.774V89.0971C135.187 89.0971 134.445 89.941 134.445 90.814H135.122ZM136.137 89.774C136.683 89.774 137.152 90.284 137.152 90.814H137.829C137.829 89.941 137.087 89.0971 136.137 89.0971V89.774ZM140.649 94.7372H139.431V95.414H140.649V94.7372ZM139.431 94.7372H138.213V95.414H139.431V94.7372ZM139.769 96.2938V95.0756H139.092V96.2938H139.769ZM139.769 95.0756V93.8573H139.092V95.0756H139.769ZM137.332 96.2362C136.971 96.288 136.571 96.3164 136.137 96.3164V96.9933C136.601 96.9933 137.033 96.9629 137.428 96.9062L137.332 96.2362ZM136.137 94.0604C136.415 94.0604 136.71 94.0761 137.004 94.1069L137.075 93.4338C136.758 93.4006 136.44 93.3836 136.137 93.3836V94.0604Z" fill="white"/>
<rect x="159.148" y="89.4355" width="38.3526" height="7.21931" rx="0.902413" fill="#D9D9D9"/>
<path d="M21.793 117.447L24.0494 119.514L26.305 117.447" stroke="#0A090B" stroke-width="0.67681" stroke-linecap="round" stroke-linejoin="round"/>
<rect x="37.0967" y="115.154" width="25.2676" height="7.21931" rx="0.902413" fill="#D9D9D9"/>
<path d="M66.877 117.861H114.028" stroke="#6E6E6E" stroke-width="0.451207"/>
<rect x="127.564" y="108.838" width="18.0483" height="18.0483" rx="9.02413" fill="#36A2EB"/>
<path d="M137.401 121.27H140.108M133.069 121.27L135.039 120.873C135.144 120.852 135.24 120.8 135.315 120.725L139.725 116.312C139.937 116.101 139.937 115.758 139.725 115.547L138.791 114.613C138.579 114.402 138.236 114.402 138.025 114.614L133.615 119.027C133.539 119.102 133.488 119.198 133.467 119.302L133.069 121.27Z" stroke="white" stroke-width="0.67681" stroke-linecap="round" stroke-linejoin="round"/>
<rect x="159.148" y="114.252" width="38.3526" height="7.21931" rx="0.902413" fill="#D9D9D9"/>
<path d="M21.793 142.264L24.0494 144.33L26.305 142.264" stroke="#0A090B" stroke-width="0.67681" stroke-linecap="round" stroke-linejoin="round"/>
<rect x="37.0967" y="139.971" width="25.2676" height="7.21931" rx="0.902413" fill="#D9D9D9"/>
<path d="M66.877 142.678H114.028" stroke="#6E6E6E" stroke-width="0.451207"/>
<rect x="127.564" y="133.654" width="18.0483" height="18.0483" rx="9.02413" fill="#4BC0C0"/>
<path d="M140.649 145.047C140.836 145.047 140.987 144.895 140.987 144.708C140.987 144.522 140.836 144.37 140.649 144.37V145.047ZM138.213 144.37C138.026 144.37 137.874 144.522 137.874 144.708C137.874 144.895 138.026 145.047 138.213 145.047V144.37ZM139.092 145.927C139.092 146.114 139.244 146.265 139.431 146.265C139.618 146.265 139.769 146.114 139.769 145.927H139.092ZM139.769 143.49C139.769 143.303 139.618 143.152 139.431 143.152C139.244 143.152 139.092 143.303 139.092 143.49H139.769ZM137.428 146.539C137.613 146.512 137.741 146.341 137.715 146.156C137.688 145.971 137.517 145.842 137.332 145.869L137.428 146.539ZM137.004 143.74C137.19 143.759 137.356 143.624 137.376 143.438C137.395 143.253 137.261 143.086 137.075 143.067L137.004 143.74ZM136.137 145.949C135.067 145.949 134.217 145.777 133.647 145.517C133.059 145.249 132.866 144.941 132.866 144.708H132.189C132.189 145.348 132.7 145.83 133.366 146.133C134.051 146.445 135.005 146.626 136.137 146.626V145.949ZM132.866 144.708C132.866 144.698 132.879 144.616 133.055 144.478C133.219 144.349 133.472 144.215 133.796 144.095C134.441 143.856 135.304 143.693 136.137 143.693V143.016C135.226 143.016 134.284 143.192 133.56 143.461C133.2 143.594 132.877 143.757 132.637 143.945C132.409 144.124 132.189 144.38 132.189 144.708H132.866ZM137.152 140.447C137.152 140.961 136.698 141.437 136.137 141.437V142.114C137.071 142.114 137.829 141.336 137.829 140.447H137.152ZM136.137 141.437C135.576 141.437 135.122 140.961 135.122 140.447H134.445C134.445 141.336 135.203 142.114 136.137 142.114V141.437ZM135.122 140.447C135.122 139.917 135.591 139.407 136.137 139.407V138.73C135.187 138.73 134.445 139.574 134.445 140.447H135.122ZM136.137 139.407C136.683 139.407 137.152 139.917 137.152 140.447H137.829C137.829 139.574 137.087 138.73 136.137 138.73V139.407ZM140.649 144.37H139.431V145.047H140.649V144.37ZM139.431 144.37H138.213V145.047H139.431V144.37ZM139.769 145.927V144.708H139.092V145.927H139.769ZM139.769 144.708V143.49H139.092V144.708H139.769ZM137.332 145.869C136.971 145.921 136.571 145.949 136.137 145.949V146.626C136.601 146.626 137.033 146.596 137.428 146.539L137.332 145.869ZM136.137 143.693C136.415 143.693 136.71 143.709 137.004 143.74L137.075 143.067C136.758 143.033 136.44 143.016 136.137 143.016V143.693Z" fill="white"/>
<rect x="159.148" y="139.068" width="38.3526" height="7.21931" rx="0.902413" fill="#D9D9D9"/>
</g>
</g>
<defs>
<filter id="filter0_d_867_15337" x="0.32319" y="0.32319" width="219.738" height="169.202" filterUnits="userSpaceOnUse" color-interpolation-filters="sRGB">
<feFlood flood-opacity="0" result="BackgroundImageFix"/>
<feColorMatrix in="SourceAlpha" type="matrix" values="0 0 0 0 0 0 0 0 0 0 0 0 0 0 0 0 0 0 127 0" result="hardAlpha"/>
<feOffset dx="1.80483" dy="1.80483"/>
<feGaussianBlur stdDeviation="1.24082"/>
<feComposite in2="hardAlpha" operator="out"/>
<feColorMatrix type="matrix" values="0 0 0 0 0 0 0 0 0 0 0 0 0 0 0 0 0 0 0.05 0"/>
<feBlend mode="normal" in2="BackgroundImageFix" result="effect1_dropShadow_867_15337"/>
<feBlend mode="normal" in="SourceGraphic" in2="effect1_dropShadow_867_15337" result="shape"/>
</filter>
<clipPath id="clip0_867_15337">
<rect x="1" y="1" width="214.774" height="164.239" rx="4.51207" fill="white"/>
</clipPath>
</defs>
</svg>
