<svg width="550" height="274" viewBox="0 0 550 274" fill="none" xmlns="http://www.w3.org/2000/svg">
<g clip-path="url(#clip0_791_18921)">
<path d="M0 5.10203C0 2.28425 2.28426 0 5.10204 0H544.898C547.716 0 550 2.28426 550 5.10204V55.6122H0V5.10203Z" fill="#E4F2F6"/>
<rect x="239" y="7.65234" width="72" height="10" rx="2" fill="#D9D9D9"/>
<g clip-path="url(#clip1_791_18921)">
<rect x="525.635" y="5.91797" width="14.7959" height="14.2857" rx="7.14286" fill="white"/>
<path d="M534.872 15.2045L536.349 16.6331M535.873 12.8236C535.873 14.6645 534.38 16.1569 532.539 16.1569C530.698 16.1569 529.206 14.6645 529.206 12.8236C529.206 10.9826 530.698 9.49023 532.539 9.49023C534.38 9.49023 535.873 10.9826 535.873 12.8236Z" stroke="#002738" stroke-width="0.765306" stroke-linecap="round"/>
</g>
<rect width="550" height="30.6122" transform="translate(0 25)" fill="#FDFDFD"/>
<rect width="37.2449" height="30.6122" transform="translate(0 25)" fill="white"/>
<rect x="7.65332" y="34.6934" width="19.3878" height="11.2245" rx="1.02041" fill="#D9D9D9"/>
<rect width="157.143" height="30.6122" transform="translate(37.2451 25)" fill="white"/>
<rect x="42.3467" y="34.6934" width="70.4082" height="11.2245" rx="1.02041" fill="#D9D9D9"/>
<rect width="110.714" height="30.6122" transform="translate(194.388 25)" fill="white"/>
<rect x="199.489" y="34.6934" width="67.3469" height="11.2245" rx="1.02041" fill="#D9D9D9"/>
<rect width="158.673" height="30.6122" transform="translate(305.102 25)" fill="white"/>
<rect x="310.203" y="34.6934" width="76.5306" height="11.2245" rx="1.02041" fill="#D9D9D9"/>
<rect width="86.2245" height="30.6122" transform="translate(463.775 25)" fill="white"/>
<rect x="468.877" y="34.6934" width="24.4898" height="11.2245" rx="1.02041" fill="#D9D9D9"/>
</g>
<g clip-path="url(#clip2_791_18921)">
<path d="M0 56.123H550V268.368C550 271.186 547.716 273.47 544.898 273.47H5.10205C2.28427 273.47 0 271.186 0 268.368V56.123Z" fill="#ECECEC"/>
<rect width="37.2449" height="30.6122" transform="translate(0 56.123)" fill="#F7FFFF"/>
<rect x="10.2041" y="65.8164" width="5.10204" height="11.2245" rx="1.02041" fill="#D9D9D9"/>
<rect width="157.143" height="30.6122" transform="translate(37.2451 56.123)" fill="#F7FFFF"/>
<rect x="42.3467" y="65.8164" width="84.1837" height="11.2245" rx="1.02041" fill="#D9D9D9"/>
<rect width="110.714" height="30.6122" transform="translate(194.388 56.123)" fill="#F7FFFF"/>
<rect x="199.489" y="65.8164" width="18.3673" height="11.2245" rx="1.02041" fill="#D9D9D9"/>
<rect width="158.673" height="30.6122" transform="translate(305.102 56.123)" fill="#F7FFFF"/>
<rect x="310.203" y="65.8164" width="84.6939" height="11.2245" rx="1.02041" fill="#D9D9D9"/>
<rect width="32.6531" height="30.6122" transform="translate(463.775 56.123)" fill="#F7FFFF"/>
<rect x="471.684" y="67.6016" width="16.8367" height="8.67347" rx="4.33673" fill="#003827"/>
<circle cx="484.184" cy="71.9374" r="3.31633" fill="white"/>
<rect width="63.2653" height="30.6122" transform="translate(496.429 56.123)" fill="#F7FFFF"/>
<path d="M511.123 75.7916H514.184M506.225 75.7916L508.452 75.3428C508.57 75.319 508.679 75.2608 508.764 75.1754L513.751 70.1861C513.99 69.9469 513.99 69.5592 513.75 69.3202L512.694 68.265C512.455 68.0261 512.067 68.0263 511.828 68.2654L506.841 73.2552C506.756 73.3404 506.698 73.4487 506.674 73.5667L506.225 75.7916Z" stroke="#003827" stroke-width="0.765306" stroke-linecap="round" stroke-linejoin="round"/>
<path d="M528.572 68.9683H536.736M531.633 74.3705V71.1292M533.674 74.3705V71.1292M534.695 76.5313H530.613C530.05 76.5313 529.593 76.0476 529.593 75.4509V69.5085C529.593 69.2102 529.821 68.9683 530.103 68.9683H535.205C535.487 68.9683 535.715 69.2102 535.715 69.5085V75.4509C535.715 76.0476 535.258 76.5313 534.695 76.5313ZM531.633 68.9683H533.674C533.956 68.9683 534.185 68.7264 534.185 68.4281V67.8879C534.185 67.5895 533.956 67.3477 533.674 67.3477H531.633C531.352 67.3477 531.123 67.5895 531.123 67.8879V68.4281C531.123 68.7264 531.352 68.9683 531.633 68.9683Z" stroke="#003827" stroke-width="0.765306" stroke-linecap="round" stroke-linejoin="round"/>
<rect width="37.2449" height="30.6122" transform="translate(0 87.2461)" fill="#F7FFFF"/>
<rect x="10.2041" y="96.9395" width="5.10204" height="11.2245" rx="1.02041" fill="#D9D9D9"/>
<rect width="157.143" height="30.6122" transform="translate(37.2451 87.2461)" fill="#F7FFFF"/>
<rect x="42.3467" y="96.9395" width="84.1837" height="11.2245" rx="1.02041" fill="#D9D9D9"/>
<rect width="110.714" height="30.6122" transform="translate(194.388 87.2461)" fill="#F7FFFF"/>
<rect x="199.489" y="96.9395" width="18.3673" height="11.2245" rx="1.02041" fill="#D9D9D9"/>
<rect width="158.673" height="30.6122" transform="translate(305.102 87.2461)" fill="#F7FFFF"/>
<rect x="310.203" y="96.9395" width="84.6939" height="11.2245" rx="1.02041" fill="#D9D9D9"/>
<rect width="32.6531" height="30.6122" transform="translate(463.775 87.2461)" fill="#F7FFFF"/>
<rect x="471.684" y="98.7246" width="16.8367" height="8.67347" rx="4.33673" fill="#003827"/>
<circle cx="484.184" cy="103.06" r="3.31633" fill="white"/>
<rect width="63.2653" height="30.6122" transform="translate(496.429 87.2461)" fill="#F7FFFF"/>
<path d="M511.123 106.915H514.184M506.225 106.915L508.452 106.466C508.57 106.442 508.679 106.384 508.764 106.298L513.751 101.309C513.99 101.07 513.99 100.682 513.75 100.443L512.694 99.3881C512.455 99.1491 512.067 99.1493 511.828 99.3884L506.841 104.378C506.756 104.463 506.698 104.572 506.674 104.69L506.225 106.915Z" stroke="#003827" stroke-width="0.765306" stroke-linecap="round" stroke-linejoin="round"/>
<path d="M528.572 100.091H536.736M531.633 105.494V102.252M533.674 105.494V102.252M534.695 107.654H530.613C530.05 107.654 529.593 107.171 529.593 106.574V100.632C529.593 100.333 529.821 100.091 530.103 100.091H535.205C535.487 100.091 535.715 100.333 535.715 100.632V106.574C535.715 107.171 535.258 107.654 534.695 107.654ZM531.633 100.091H533.674C533.956 100.091 534.185 99.8495 534.185 99.5511V99.0109C534.185 98.7126 533.956 98.4707 533.674 98.4707H531.633C531.352 98.4707 531.123 98.7126 531.123 99.0109V99.5511C531.123 99.8495 531.352 100.091 531.633 100.091Z" stroke="#003827" stroke-width="0.765306" stroke-linecap="round" stroke-linejoin="round"/>
<rect width="37.2449" height="30.6122" transform="translate(0 118.367)" fill="#F7FFFF"/>
<rect x="10.2041" y="128.061" width="5.10204" height="11.2245" rx="1.02041" fill="#D9D9D9"/>
<rect width="157.143" height="30.6122" transform="translate(37.2451 118.367)" fill="#F7FFFF"/>
<rect x="42.3467" y="128.061" width="84.1837" height="11.2245" rx="1.02041" fill="#D9D9D9"/>
<rect width="110.714" height="30.6122" transform="translate(194.388 118.367)" fill="#F7FFFF"/>
<rect x="199.489" y="128.061" width="18.3673" height="11.2245" rx="1.02041" fill="#D9D9D9"/>
<rect width="158.673" height="30.6122" transform="translate(305.102 118.367)" fill="#F7FFFF"/>
<rect x="310.203" y="128.061" width="84.6939" height="11.2245" rx="1.02041" fill="#D9D9D9"/>
<rect width="32.6531" height="30.6122" transform="translate(463.775 118.367)" fill="#F7FFFF"/>
<rect x="471.684" y="129.846" width="16.8367" height="8.67347" rx="4.33673" fill="#003827"/>
<circle cx="484.184" cy="134.182" r="3.31633" fill="white"/>
<rect width="63.2653" height="30.6122" transform="translate(496.429 118.367)" fill="#F7FFFF"/>
<path d="M511.123 138.036H514.184M506.225 138.036L508.452 137.587C508.57 137.563 508.679 137.505 508.764 137.42L513.751 132.43C513.99 132.191 513.99 131.803 513.75 131.564L512.694 130.509C512.455 130.27 512.067 130.27 511.828 130.51L506.841 135.499C506.756 135.584 506.698 135.693 506.674 135.811L506.225 138.036Z" stroke="#003827" stroke-width="0.765306" stroke-linecap="round" stroke-linejoin="round"/>
<path d="M528.572 131.212H536.736M531.633 136.615V133.373M533.674 136.615V133.373M534.695 138.775H530.613C530.05 138.775 529.593 138.292 529.593 137.695V131.753C529.593 131.454 529.821 131.212 530.103 131.212H535.205C535.487 131.212 535.715 131.454 535.715 131.753V137.695C535.715 138.292 535.258 138.775 534.695 138.775ZM531.633 131.212H533.674C533.956 131.212 534.185 130.971 534.185 130.672V130.132C534.185 129.834 533.956 129.592 533.674 129.592H531.633C531.352 129.592 531.123 129.834 531.123 130.132V130.672C531.123 130.971 531.352 131.212 531.633 131.212Z" stroke="#003827" stroke-width="0.765306" stroke-linecap="round" stroke-linejoin="round"/>
<rect width="37.2449" height="30.6122" transform="translate(0 149.49)" fill="#F7FFFF"/>
<rect x="10.2041" y="159.184" width="5.10204" height="11.2245" rx="1.02041" fill="#D9D9D9"/>
<rect width="157.143" height="30.6122" transform="translate(37.2451 149.49)" fill="#F7FFFF"/>
<rect x="42.3467" y="159.184" width="84.1837" height="11.2245" rx="1.02041" fill="#D9D9D9"/>
<rect width="110.714" height="30.6122" transform="translate(194.388 149.49)" fill="#F7FFFF"/>
<rect x="199.489" y="159.184" width="18.3673" height="11.2245" rx="1.02041" fill="#D9D9D9"/>
<rect width="158.673" height="30.6122" transform="translate(305.102 149.49)" fill="#F7FFFF"/>
<rect x="310.203" y="159.184" width="84.6939" height="11.2245" rx="1.02041" fill="#D9D9D9"/>
<rect width="32.6531" height="30.6122" transform="translate(463.775 149.49)" fill="#F7FFFF"/>
<rect x="471.684" y="160.969" width="16.8367" height="8.67347" rx="4.33673" fill="#003827"/>
<circle cx="484.184" cy="165.305" r="3.31633" fill="white"/>
<rect width="63.2653" height="30.6122" transform="translate(496.429 149.49)" fill="#F7FFFF"/>
<path d="M511.123 169.159H514.184M506.225 169.159L508.452 168.71C508.57 168.686 508.679 168.628 508.764 168.543L513.751 163.553C513.99 163.314 513.99 162.926 513.75 162.687L512.694 161.632C512.455 161.393 512.067 161.393 511.828 161.633L506.841 166.622C506.756 166.708 506.698 166.816 506.674 166.934L506.225 169.159Z" stroke="#003827" stroke-width="0.765306" stroke-linecap="round" stroke-linejoin="round"/>
<path d="M528.572 162.335H536.736M531.633 167.738V164.496M533.674 167.738V164.496M534.695 169.899H530.613C530.05 169.899 529.593 169.415 529.593 168.818V162.876C529.593 162.577 529.821 162.335 530.103 162.335H535.205C535.487 162.335 535.715 162.577 535.715 162.876V168.818C535.715 169.415 535.258 169.899 534.695 169.899ZM531.633 162.335H533.674C533.956 162.335 534.185 162.094 534.185 161.795V161.255C534.185 160.957 533.956 160.715 533.674 160.715H531.633C531.352 160.715 531.123 160.957 531.123 161.255V161.795C531.123 162.094 531.352 162.335 531.633 162.335Z" stroke="#003827" stroke-width="0.765306" stroke-linecap="round" stroke-linejoin="round"/>
<rect width="37.2449" height="30.6122" transform="translate(0 180.613)" fill="#F7FFFF"/>
<rect x="10.2041" y="190.307" width="5.10204" height="11.2245" rx="1.02041" fill="#D9D9D9"/>
<rect width="157.143" height="30.6122" transform="translate(37.2451 180.613)" fill="#F7FFFF"/>
<rect x="42.3467" y="190.307" width="84.1837" height="11.2245" rx="1.02041" fill="#D9D9D9"/>
<rect width="110.714" height="30.6122" transform="translate(194.388 180.613)" fill="#F7FFFF"/>
<rect x="199.489" y="190.307" width="18.3673" height="11.2245" rx="1.02041" fill="#D9D9D9"/>
<rect width="158.673" height="30.6122" transform="translate(305.102 180.613)" fill="#F7FFFF"/>
<rect x="310.203" y="190.307" width="84.6939" height="11.2245" rx="1.02041" fill="#D9D9D9"/>
<rect width="32.6531" height="30.6122" transform="translate(463.775 180.613)" fill="#F7FFFF"/>
<rect x="471.684" y="192.092" width="16.8367" height="8.67347" rx="4.33673" fill="#003827"/>
<circle cx="484.184" cy="196.428" r="3.31633" fill="white"/>
<rect width="63.2653" height="30.6122" transform="translate(496.429 180.613)" fill="#F7FFFF"/>
<path d="M511.123 200.282H514.184M506.225 200.282L508.452 199.833C508.57 199.809 508.679 199.751 508.764 199.666L513.751 194.676C513.99 194.437 513.99 194.049 513.75 193.81L512.694 192.755C512.455 192.516 512.067 192.517 511.828 192.756L506.841 197.745C506.756 197.831 506.698 197.939 506.674 198.057L506.225 200.282Z" stroke="#003827" stroke-width="0.765306" stroke-linecap="round" stroke-linejoin="round"/>
<path d="M528.572 193.459H536.736M531.633 198.861V195.619M533.674 198.861V195.619M534.695 201.022H530.613C530.05 201.022 529.593 200.538 529.593 199.941V193.999C529.593 193.7 529.821 193.459 530.103 193.459H535.205C535.487 193.459 535.715 193.7 535.715 193.999V199.941C535.715 200.538 535.258 201.022 534.695 201.022ZM531.633 193.459H533.674C533.956 193.459 534.185 193.217 534.185 192.918V192.378C534.185 192.08 533.956 191.838 533.674 191.838H531.633C531.352 191.838 531.123 192.08 531.123 192.378V192.918C531.123 193.217 531.352 193.459 531.633 193.459Z" stroke="#003827" stroke-width="0.765306" stroke-linecap="round" stroke-linejoin="round"/>
<rect width="37.2449" height="30.6122" transform="translate(0 211.734)" fill="#F7FFFF"/>
<rect x="10.2041" y="221.428" width="5.10204" height="11.2245" rx="1.02041" fill="#D9D9D9"/>
<rect width="157.143" height="30.6122" transform="translate(37.2451 211.734)" fill="#F7FFFF"/>
<rect x="42.3467" y="221.428" width="84.1837" height="11.2245" rx="1.02041" fill="#D9D9D9"/>
<rect width="110.714" height="30.6122" transform="translate(194.388 211.734)" fill="#F7FFFF"/>
<rect x="199.489" y="221.428" width="18.3673" height="11.2245" rx="1.02041" fill="#D9D9D9"/>
<rect width="158.673" height="30.6122" transform="translate(305.102 211.734)" fill="#F7FFFF"/>
<rect x="310.203" y="221.428" width="84.6939" height="11.2245" rx="1.02041" fill="#D9D9D9"/>
<rect width="32.6531" height="30.6122" transform="translate(463.775 211.734)" fill="#F7FFFF"/>
<rect x="471.684" y="223.213" width="16.8367" height="8.67347" rx="4.33673" fill="#003827"/>
<circle cx="484.184" cy="227.549" r="3.31633" fill="white"/>
<rect width="63.2653" height="30.6122" transform="translate(496.429 211.734)" fill="#F7FFFF"/>
<path d="M511.123 231.403H514.184M506.225 231.403L508.452 230.954C508.57 230.93 508.679 230.872 508.764 230.787L513.751 225.797C513.99 225.558 513.99 225.17 513.75 224.931L512.694 223.876C512.455 223.637 512.067 223.638 511.828 223.877L506.841 228.867C506.756 228.952 506.698 229.06 506.674 229.178L506.225 231.403Z" stroke="#003827" stroke-width="0.765306" stroke-linecap="round" stroke-linejoin="round"/>
<path d="M528.572 224.58H536.736M531.633 229.982V226.74M533.674 229.982V226.74M534.695 232.143H530.613C530.05 232.143 529.593 231.659 529.593 231.062V225.12C529.593 224.821 529.821 224.58 530.103 224.58H535.205C535.487 224.58 535.715 224.821 535.715 225.12V231.062C535.715 231.659 535.258 232.143 534.695 232.143ZM531.633 224.58H533.674C533.956 224.58 534.185 224.338 534.185 224.039V223.499C534.185 223.201 533.956 222.959 533.674 222.959H531.633C531.352 222.959 531.123 223.201 531.123 223.499V224.039C531.123 224.338 531.352 224.58 531.633 224.58Z" stroke="#003827" stroke-width="0.765306" stroke-linecap="round" stroke-linejoin="round"/>
<rect width="37.2449" height="30.6122" transform="translate(0 242.857)" fill="#F7FFFF"/>
<rect x="10.2041" y="252.551" width="5.10204" height="11.2245" rx="1.02041" fill="#D9D9D9"/>
<rect width="157.143" height="30.6122" transform="translate(37.2451 242.857)" fill="#F7FFFF"/>
<rect x="42.3467" y="252.551" width="84.1837" height="11.2245" rx="1.02041" fill="#D9D9D9"/>
<rect width="110.714" height="30.6122" transform="translate(194.388 242.857)" fill="#F7FFFF"/>
<rect x="199.489" y="252.551" width="18.3673" height="11.2245" rx="1.02041" fill="#D9D9D9"/>
<rect width="158.673" height="30.6122" transform="translate(305.102 242.857)" fill="#F7FFFF"/>
<rect x="310.203" y="252.551" width="84.6939" height="11.2245" rx="1.02041" fill="#D9D9D9"/>
<rect width="32.6531" height="30.6122" transform="translate(463.775 242.857)" fill="#F7FFFF"/>
<rect x="471.684" y="254.336" width="16.8367" height="8.67347" rx="4.33673" fill="#003827"/>
<circle cx="484.184" cy="258.672" r="3.31633" fill="white"/>
<rect width="63.2653" height="30.6122" transform="translate(496.429 242.857)" fill="#F7FFFF"/>
<path d="M511.123 262.526H514.184M506.225 262.526L508.452 262.077C508.57 262.053 508.679 261.995 508.764 261.91L513.751 256.921C513.99 256.681 513.99 256.294 513.75 256.055L512.694 254.999C512.455 254.76 512.067 254.761 511.828 255L506.841 259.99C506.756 260.075 506.698 260.183 506.674 260.301L506.225 262.526Z" stroke="#003827" stroke-width="0.765306" stroke-linecap="round" stroke-linejoin="round"/>
<path d="M528.572 255.703H536.736M531.633 261.105V257.864M533.674 261.105V257.864M534.695 263.266H530.613C530.05 263.266 529.593 262.782 529.593 262.185V256.243C529.593 255.945 529.821 255.703 530.103 255.703H535.205C535.487 255.703 535.715 255.945 535.715 256.243V262.185C535.715 262.782 535.258 263.266 534.695 263.266ZM531.633 255.703H533.674C533.956 255.703 534.185 255.461 534.185 255.162V254.622C534.185 254.324 533.956 254.082 533.674 254.082H531.633C531.352 254.082 531.123 254.324 531.123 254.622V255.162C531.123 255.461 531.352 255.703 531.633 255.703Z" stroke="#003827" stroke-width="0.765306" stroke-linecap="round" stroke-linejoin="round"/>
</g>
<defs>
<clipPath id="clip0_791_18921">
<path d="M0 5.10203C0 2.28425 2.28426 0 5.10204 0H544.898C547.716 0 550 2.28426 550 5.10204V55.6122H0V5.10203Z" fill="white"/>
</clipPath>
<clipPath id="clip1_791_18921">
<rect x="525.635" y="5.91797" width="14.7959" height="14.2857" rx="7.14286" fill="white"/>
</clipPath>
<clipPath id="clip2_791_18921">
<path d="M0 56.123H550V268.368C550 271.186 547.716 273.47 544.898 273.47H5.10205C2.28427 273.47 0 271.186 0 268.368V56.123Z" fill="white"/>
</clipPath>
</defs>
</svg>
