<svg width="185" height="76" viewBox="0 0 185 76" fill="none" xmlns="http://www.w3.org/2000/svg">
<g filter="url(#filter0_d_539_17049)">
<g clip-path="url(#clip0_539_17049)">
<rect x="7.39648" y="5.94043" width="168.222" height="58.7569" rx="4.43248" fill="white"/>
<path d="M15.9883 15.4548H15.1851V12.3273H14.1533V11.6571H17.0202V12.3273H15.9883V15.4548ZM19.8062 13.9974C19.8062 14.2386 19.7725 14.4531 19.7051 14.641C19.6413 14.829 19.5473 14.9885 19.4232 15.1197C19.3027 15.2474 19.1555 15.3449 18.9818 15.4123C18.808 15.4761 18.6112 15.508 18.3914 15.508C18.1892 15.508 18.0013 15.4761 17.8275 15.4123C17.6573 15.3449 17.5102 15.2474 17.3861 15.1197C17.262 14.9885 17.1644 14.829 17.0935 14.641C17.0262 14.4531 16.9925 14.2386 16.9925 13.9974C16.9925 13.6748 17.0492 13.4035 17.1627 13.1836C17.2761 12.9602 17.4393 12.79 17.652 12.673C17.8648 12.556 18.1165 12.4975 18.4073 12.4975C18.6804 12.4975 18.9215 12.556 19.1307 12.673C19.3399 12.79 19.5048 12.9602 19.6254 13.1836C19.7459 13.4035 19.8062 13.6748 19.8062 13.9974ZM17.8009 13.9974C17.8009 14.1889 17.8205 14.3503 17.8595 14.4815C17.902 14.6091 17.9676 14.7066 18.0563 14.774C18.1449 14.8378 18.2602 14.8697 18.402 14.8697C18.5438 14.8697 18.6573 14.8378 18.7424 14.774C18.8311 14.7066 18.8949 14.6091 18.9339 14.4815C18.9764 14.3503 18.9977 14.1889 18.9977 13.9974C18.9977 13.806 18.9764 13.6464 18.9339 13.5187C18.8949 13.3911 18.8311 13.2953 18.7424 13.2315C18.6538 13.1677 18.5385 13.1358 18.3967 13.1358C18.1875 13.1358 18.035 13.2085 17.9392 13.3538C17.847 13.4957 17.8009 13.7102 17.8009 13.9974ZM21.3814 15.508C21.0587 15.508 20.7945 15.3821 20.5888 15.1304C20.3867 14.8751 20.2857 14.501 20.2857 14.0081C20.2857 13.5116 20.3885 13.1358 20.5942 12.8805C20.7998 12.6251 21.0693 12.4975 21.4026 12.4975C21.5409 12.4975 21.6633 12.517 21.7696 12.556C21.876 12.5915 21.9665 12.6411 22.0409 12.7049C22.1189 12.7688 22.1845 12.8414 22.2377 12.923H22.2643C22.2537 12.8663 22.2413 12.7847 22.2271 12.6783C22.2129 12.5684 22.2058 12.4567 22.2058 12.3432V11.4124H22.9983V15.4548H22.392L22.2377 15.0772H22.2058C22.1562 15.1552 22.0923 15.2279 22.0143 15.2953C21.9399 15.3591 21.8512 15.4105 21.7484 15.4495C21.6455 15.4885 21.5232 15.508 21.3814 15.508ZM21.658 14.8751C21.8778 14.8751 22.0321 14.8112 22.1207 14.6836C22.2094 14.5524 22.2554 14.3574 22.259 14.0985V14.0134C22.259 13.7297 22.2147 13.5134 22.126 13.3645C22.0409 13.2155 21.8813 13.1411 21.6473 13.1411C21.4736 13.1411 21.337 13.2173 21.2378 13.3698C21.1385 13.5187 21.0888 13.735 21.0888 14.0187C21.0888 14.3024 21.1385 14.5169 21.2378 14.6623C21.337 14.8041 21.4771 14.8751 21.658 14.8751ZM25.0185 12.4922C25.4086 12.4922 25.7065 12.5773 25.9121 12.7475C26.1213 12.9141 26.226 13.1712 26.226 13.5187V15.4548H25.6728L25.5185 15.0612H25.4973C25.4157 15.1641 25.3306 15.2492 25.2419 15.3165C25.1568 15.3839 25.0575 15.4318 24.9441 15.4602C24.8342 15.4921 24.6976 15.508 24.5345 15.508C24.3643 15.508 24.2101 15.4761 24.0718 15.4123C23.937 15.3449 23.8306 15.2438 23.7526 15.1091C23.6746 14.9708 23.6356 14.7971 23.6356 14.5878C23.6356 14.2793 23.7438 14.0524 23.9601 13.907C24.1764 13.7581 24.5008 13.6765 24.9334 13.6623L25.4387 13.6464V13.5187C25.4387 13.3663 25.398 13.2546 25.3164 13.1836C25.2384 13.1127 25.1285 13.0773 24.9866 13.0773C24.8448 13.0773 24.7065 13.0985 24.5718 13.1411C24.437 13.1801 24.3023 13.2297 24.1675 13.29L23.9069 12.7528C24.0629 12.6712 24.2349 12.6074 24.4228 12.5613C24.6143 12.5152 24.8129 12.4922 25.0185 12.4922ZM25.1302 14.1198C24.8749 14.1269 24.6976 14.173 24.5983 14.2581C24.4991 14.3432 24.4494 14.4549 24.4494 14.5932C24.4494 14.7137 24.4849 14.8006 24.5558 14.8538C24.6267 14.9034 24.7189 14.9283 24.8324 14.9283C25.0026 14.9283 25.1462 14.8786 25.2632 14.7793C25.3802 14.6765 25.4387 14.5329 25.4387 14.3485V14.1091L25.1302 14.1198ZM26.6223 12.5507H27.4893L28.0371 14.1836C28.0549 14.2368 28.0691 14.29 28.0797 14.3432C28.0939 14.3964 28.1045 14.4513 28.1116 14.5081C28.1222 14.5648 28.1293 14.6251 28.1329 14.6889H28.1488C28.1595 14.5967 28.1737 14.5098 28.1914 14.4283C28.2127 14.3432 28.2357 14.2616 28.2605 14.1836L28.7978 12.5507H29.6488L28.4201 15.8272C28.3456 16.0257 28.2481 16.1924 28.1276 16.3271C28.0105 16.4619 27.874 16.563 27.718 16.6303C27.562 16.6977 27.3918 16.7314 27.2074 16.7314C27.1187 16.7314 27.0407 16.7261 26.9733 16.7154C26.9095 16.7083 26.8528 16.6995 26.8031 16.6888V16.0612C26.8421 16.0683 26.8882 16.0754 26.9414 16.0825C26.9982 16.0896 27.0567 16.0931 27.117 16.0931C27.2269 16.0931 27.3209 16.0701 27.3989 16.024C27.4804 15.9779 27.5478 15.914 27.601 15.8325C27.6542 15.7545 27.6967 15.6694 27.7286 15.5772L27.7765 15.4336L26.6223 12.5507Z" fill="#64ADF2"/>
<rect x="18.479" y="20.8872" width="26.5949" height="26.5949" rx="13.2974" fill="#FF6384" fill-opacity="0.18"/>
<rect x="22.9155" y="25.3188" width="17.7299" height="17.7299" rx="8.86495" fill="#FF6384"/>
<path d="M28.2329 31.603H35.3249M30.8924 36.2962V33.4803M32.6654 36.2962V33.4803M33.5519 38.1735H30.0059C29.5163 38.1735 29.1194 37.7533 29.1194 37.2349V32.0724C29.1194 31.8132 29.3179 31.603 29.5627 31.603H33.9951C34.2399 31.603 34.4384 31.8132 34.4384 32.0724V37.2349C34.4384 37.7533 34.0415 38.1735 33.5519 38.1735ZM30.8924 31.603H32.6654C32.9102 31.603 33.1086 31.3929 33.1086 31.1337V30.6644C33.1086 30.4052 32.9102 30.1951 32.6654 30.1951H30.8924C30.6476 30.1951 30.4491 30.4052 30.4491 30.6644V31.1337C30.4491 31.3929 30.6476 31.603 30.8924 31.603Z" stroke="white" stroke-width="0.664872" stroke-linecap="round" stroke-linejoin="round"/>
<rect x="20.106" y="50.5847" width="23.3418" height="7.244" rx="1.60978" fill="#E2E2E2"/>
<rect x="49.5068" y="20.8872" width="26.5949" height="26.5949" rx="13.2974" fill="#36A2EB" fill-opacity="0.2"/>
<rect x="53.9385" y="25.3188" width="17.7299" height="17.7299" rx="8.86495" fill="#36A2EB"/>
<path d="M63.6013 37.5314H66.2608M59.3462 37.5314L61.2814 37.1414C61.3841 37.1207 61.4785 37.0701 61.5526 36.996L65.8847 32.6615C66.0924 32.4537 66.0923 32.1168 65.8844 31.9092L64.9667 30.9925C64.7589 30.7849 64.4222 30.7851 64.2146 30.9928L59.882 35.3278C59.808 35.4018 59.7575 35.4959 59.7368 35.5984L59.3462 37.5314Z" stroke="white" stroke-width="0.664872" stroke-linecap="round" stroke-linejoin="round"/>
<rect x="51.1333" y="50.5847" width="23.3418" height="7.244" rx="1.60978" fill="#E2E2E2"/>
<rect x="80.5342" y="20.8872" width="26.5949" height="26.5949" rx="13.2974" fill="#B5CCCC"/>
<rect x="84.9644" y="25.3188" width="17.7299" height="17.7299" rx="8.86495" fill="#4BC0C0"/>
<path d="M97.8203 36.5115C98.0039 36.5115 98.1527 36.3626 98.1527 36.179C98.1527 35.9954 98.0039 35.8466 97.8203 35.8466V36.5115ZM95.4267 35.8466C95.2431 35.8466 95.0943 35.9954 95.0943 36.179C95.0943 36.3626 95.2431 36.5115 95.4267 36.5115V35.8466ZM96.2911 37.3757C96.2911 37.5593 96.4399 37.7082 96.6235 37.7082C96.8071 37.7082 96.9559 37.5593 96.9559 37.3757H96.2911ZM96.9559 34.9822C96.9559 34.7986 96.8071 34.6498 96.6235 34.6498C96.4399 34.6498 96.2911 34.7986 96.2911 34.9822H96.9559ZM94.6559 37.9773C94.8376 37.9512 94.9638 37.7827 94.9377 37.601C94.9116 37.4193 94.7431 37.2931 94.5614 37.3192L94.6559 37.9773ZM94.2396 35.2274C94.4222 35.2466 94.5858 35.1141 94.6049 34.9315C94.624 34.7489 94.4915 34.5853 94.3089 34.5662L94.2396 35.2274ZM93.3878 37.398C92.3371 37.398 91.5014 37.2285 90.9417 36.9735C90.3637 36.7102 90.1742 36.4074 90.1742 36.179H89.5094C89.5094 36.8074 90.0116 37.2804 90.666 37.5785C91.3387 37.885 92.276 38.0628 93.3878 38.0628L93.3878 37.398ZM90.1742 36.179C90.1742 36.1688 90.1868 36.0883 90.3601 35.9523C90.5217 35.8255 90.7695 35.6945 91.0878 35.5765C91.7218 35.3414 92.569 35.1817 93.3878 35.1817V34.5168C92.493 34.5168 91.5672 34.6896 90.8566 34.9531C90.5026 35.0844 90.1852 35.2444 89.9496 35.4292C89.7258 35.6049 89.5094 35.8568 89.5094 36.179H90.1742ZM94.3851 31.9926C94.3851 32.4975 93.9391 32.9655 93.3878 32.9655V33.6303C94.3052 33.6303 95.05 32.8658 95.05 31.9926H94.3851ZM93.3878 32.9655C92.8364 32.9655 92.3905 32.4975 92.3905 31.9926H91.7256C91.7256 32.8658 92.4703 33.6303 93.3878 33.6303V32.9655ZM92.3905 31.9926C92.3905 31.4719 92.8518 30.9709 93.3878 30.9709V30.306C92.455 30.306 91.7256 31.135 91.7256 31.9926H92.3905ZM93.3878 30.9709C93.9238 30.9709 94.3851 31.4719 94.3851 31.9926H95.05C95.05 31.135 94.3205 30.306 93.3878 30.306V30.9709ZM97.8203 35.8466H96.6235V36.5115H97.8203V35.8466ZM96.6235 35.8466H95.4267V36.5115H96.6235V35.8466ZM96.9559 37.3757V36.179H96.2911V37.3757H96.9559ZM96.9559 36.179V34.9822H96.2911V36.179H96.9559ZM94.5614 37.3192C94.2073 37.37 93.8145 37.398 93.3878 37.398L93.3878 38.0628C93.8432 38.0628 94.2677 38.033 94.6559 37.9773L94.5614 37.3192ZM93.3878 35.1817C93.6612 35.1817 93.9502 35.1971 94.2396 35.2274L94.3089 34.5662C93.9976 34.5335 93.6855 34.5168 93.3878 34.5168V35.1817Z" fill="white"/>
<rect x="82.1606" y="50.5847" width="23.3418" height="7.244" rx="1.60978" fill="#E2E2E2"/>
<rect x="111.561" y="20.8872" width="26.5949" height="26.5949" rx="13.2974" fill="#36A2EB" fill-opacity="0.2"/>
<rect x="115.993" y="25.3188" width="17.7299" height="17.7299" rx="8.86495" fill="#36A2EB"/>
<path d="M125.653 37.5314H128.313M121.398 37.5314L123.333 37.1414C123.436 37.1207 123.53 37.0701 123.604 36.996L127.936 32.6615C128.144 32.4537 128.144 32.1168 127.936 31.9092L127.018 30.9925C126.811 30.7849 126.474 30.7851 126.266 30.9928L121.934 35.3278C121.86 35.4018 121.809 35.4959 121.789 35.5984L121.398 37.5314Z" stroke="white" stroke-width="0.664872" stroke-linecap="round" stroke-linejoin="round"/>
<rect x="113.188" y="50.5847" width="23.3418" height="7.244" rx="1.60978" fill="#E2E2E2"/>
<rect x="142.589" y="20.8872" width="26.5949" height="26.5949" rx="13.2974" fill="#B5CCCC"/>
<rect x="147.025" y="25.3188" width="17.7299" height="17.7299" rx="8.86495" fill="#4BC0C0"/>
<path d="M159.88 36.5115C160.064 36.5115 160.213 36.3626 160.213 36.179C160.213 35.9954 160.064 35.8466 159.88 35.8466V36.5115ZM157.487 35.8466C157.303 35.8466 157.154 35.9954 157.154 36.179C157.154 36.3626 157.303 36.5115 157.487 36.5115V35.8466ZM158.351 37.3757C158.351 37.5593 158.5 37.7082 158.684 37.7082C158.867 37.7082 159.016 37.5593 159.016 37.3757H158.351ZM159.016 34.9822C159.016 34.7986 158.867 34.6498 158.684 34.6498C158.5 34.6498 158.351 34.7986 158.351 34.9822H159.016ZM156.716 37.9773C156.898 37.9512 157.024 37.7827 156.998 37.601C156.972 37.4193 156.803 37.2931 156.621 37.3192L156.716 37.9773ZM156.3 35.2274C156.482 35.2466 156.646 35.1141 156.665 34.9315C156.684 34.7489 156.552 34.5853 156.369 34.5662L156.3 35.2274ZM155.448 37.398C154.397 37.398 153.561 37.2285 153.002 36.9735C152.424 36.7102 152.234 36.4074 152.234 36.179H151.569C151.569 36.8074 152.072 37.2804 152.726 37.5785C153.399 37.885 154.336 38.0628 155.448 38.0628L155.448 37.398ZM152.234 36.179C152.234 36.1688 152.247 36.0883 152.42 35.9523C152.582 35.8255 152.83 35.6945 153.148 35.5765C153.782 35.3414 154.629 35.1817 155.448 35.1817V34.5168C154.553 34.5168 153.627 34.6896 152.917 34.9531C152.563 35.0844 152.245 35.2444 152.01 35.4292C151.786 35.6049 151.569 35.8568 151.569 36.179H152.234ZM156.445 31.9926C156.445 32.4975 155.999 32.9655 155.448 32.9655V33.6303C156.365 33.6303 157.11 32.8658 157.11 31.9926H156.445ZM155.448 32.9655C154.896 32.9655 154.451 32.4975 154.451 31.9926H153.786C153.786 32.8658 154.53 33.6303 155.448 33.6303V32.9655ZM154.451 31.9926C154.451 31.4719 154.912 30.9709 155.448 30.9709V30.306C154.515 30.306 153.786 31.135 153.786 31.9926H154.451ZM155.448 30.9709C155.984 30.9709 156.445 31.4719 156.445 31.9926H157.11C157.11 31.135 156.381 30.306 155.448 30.306V30.9709ZM159.88 35.8466H158.684V36.5115H159.88V35.8466ZM158.684 35.8466H157.487V36.5115H158.684V35.8466ZM159.016 37.3757V36.179H158.351V37.3757H159.016ZM159.016 36.179V34.9822H158.351V36.179H159.016ZM156.621 37.3192C156.267 37.37 155.875 37.398 155.448 37.398L155.448 38.0628C155.903 38.0628 156.328 38.033 156.716 37.9773L156.621 37.3192ZM155.448 35.1817C155.721 35.1817 156.01 35.1971 156.3 35.2274L156.369 34.5662C156.058 34.5335 155.746 34.5168 155.448 34.5168V35.1817Z" fill="white"/>
<rect x="144.215" y="50.5847" width="23.3418" height="7.244" rx="1.60978" fill="#E2E2E2"/>
</g>
</g>
<defs>
<filter id="filter0_d_539_17049" x="0.152487" y="0.306209" width="184.319" height="74.8546" filterUnits="userSpaceOnUse" color-interpolation-filters="sRGB">
<feFlood flood-opacity="0" result="BackgroundImageFix"/>
<feColorMatrix in="SourceAlpha" type="matrix" values="0 0 0 0 0 0 0 0 0 0 0 0 0 0 0 0 0 0 127 0" result="hardAlpha"/>
<feOffset dx="0.804889" dy="2.41467"/>
<feGaussianBlur stdDeviation="4.02444"/>
<feComposite in2="hardAlpha" operator="out"/>
<feColorMatrix type="matrix" values="0 0 0 0 0.690196 0 0 0 0 0.690196 0 0 0 0 0.690196 0 0 0 0.25 0"/>
<feBlend mode="normal" in2="BackgroundImageFix" result="effect1_dropShadow_539_17049"/>
<feBlend mode="normal" in="SourceGraphic" in2="effect1_dropShadow_539_17049" result="shape"/>
</filter>
<clipPath id="clip0_539_17049">
<rect x="7.39648" y="5.94043" width="168.222" height="58.7569" rx="4.43248" fill="white"/>
</clipPath>
</defs>
</svg>
