<svg width="249" height="233" viewBox="0 0 249 233" fill="none" xmlns="http://www.w3.org/2000/svg">
<g filter="url(#filter0_d_539_17170)">
<rect x="7.72363" y="6.32812" width="232.262" height="215.862" rx="4.43248" fill="white" shape-rendering="crispEdges"/>
<path d="M24.061 22.6266C24.061 23.0202 23.9759 23.3766 23.8057 23.6957C23.6408 24.0096 23.3882 24.2596 23.0478 24.4457C22.7073 24.6266 22.2765 24.717 21.7553 24.717C21.0159 24.717 20.4548 24.5255 20.0718 24.1425C19.6888 23.7543 19.4973 23.2436 19.4973 22.6107V18.9406H20.5186V22.507C20.5186 22.9697 20.625 23.3101 20.8377 23.5282C21.0505 23.741 21.367 23.8473 21.7872 23.8473C22.085 23.8473 22.3244 23.7968 22.5052 23.6957C22.6914 23.5947 22.827 23.4431 22.9121 23.241C23.0026 23.0335 23.0478 22.7862 23.0478 22.499V18.9406H24.061V22.6266ZM28.354 23.3846C28.354 23.6718 28.2849 23.9165 28.1466 24.1186C28.0083 24.3154 27.8035 24.4643 27.5322 24.5654C27.2663 24.6665 26.9392 24.717 26.5509 24.717C26.2477 24.717 25.9871 24.6957 25.769 24.6532C25.5509 24.6106 25.3435 24.5441 25.1467 24.4537V23.6C25.3594 23.7011 25.5961 23.7862 25.8567 23.8553C26.1174 23.9245 26.3594 23.959 26.5828 23.959C26.8594 23.959 27.0588 23.9165 27.1812 23.8314C27.3035 23.7463 27.3647 23.6319 27.3647 23.4883C27.3647 23.4032 27.3407 23.3261 27.2929 23.2569C27.245 23.1878 27.1519 23.116 27.0136 23.0415C26.8753 22.9617 26.6652 22.8633 26.3833 22.7463C26.1067 22.6346 25.8754 22.5229 25.6892 22.4112C25.5083 22.2995 25.3701 22.1665 25.2743 22.0123C25.1839 21.8527 25.1387 21.6533 25.1387 21.4139C25.1387 21.0256 25.2929 20.7331 25.6014 20.5363C25.9099 20.3342 26.3168 20.2331 26.8221 20.2331C27.0881 20.2331 27.3381 20.2597 27.5721 20.3129C27.8115 20.3608 28.0508 20.4405 28.2902 20.5522L27.971 21.2942C27.8381 21.2357 27.7051 21.1852 27.5721 21.1426C27.4445 21.0948 27.3141 21.0575 27.1812 21.0309C27.0535 21.0043 26.9232 20.9911 26.7902 20.9911C26.5721 20.9911 26.4073 21.0256 26.2956 21.0948C26.1839 21.1586 26.128 21.249 26.128 21.366C26.128 21.4565 26.1546 21.5362 26.2078 21.6054C26.2663 21.6692 26.3647 21.7357 26.503 21.8049C26.6466 21.8687 26.8487 21.9538 27.1094 22.0602C27.37 22.1612 27.5907 22.2676 27.7716 22.3793C27.9577 22.4857 28.1013 22.6187 28.2024 22.7782C28.3035 22.9378 28.354 23.1399 28.354 23.3846ZM31.0606 20.2331C31.4489 20.2331 31.7813 20.3129 32.0579 20.4725C32.3398 20.6267 32.5579 20.8501 32.7121 21.1426C32.8664 21.4299 32.9435 21.7809 32.9435 22.1958V22.7064H30.0872C30.0978 23.1 30.2069 23.4059 30.4143 23.6239C30.6218 23.8367 30.909 23.9431 31.276 23.9431C31.5579 23.9431 31.8079 23.9165 32.026 23.8633C32.2494 23.8048 32.4781 23.7223 32.7121 23.616V24.4218C32.4993 24.5228 32.2786 24.5973 32.0499 24.6452C31.8212 24.6931 31.5473 24.717 31.2281 24.717C30.8079 24.717 30.4329 24.6372 30.1032 24.4776C29.7787 24.3127 29.5234 24.0654 29.3372 23.7356C29.1564 23.4059 29.066 22.9963 29.066 22.507C29.066 22.0123 29.1484 21.5974 29.3133 21.2623C29.4835 20.9219 29.7175 20.6666 30.0154 20.4964C30.3133 20.3209 30.6616 20.2331 31.0606 20.2331ZM31.0606 20.9751C30.7946 20.9751 30.5765 21.0629 30.4063 21.2384C30.2414 21.4086 30.143 21.6639 30.1111 22.0043H31.9701C31.9701 21.8022 31.9355 21.624 31.8664 21.4698C31.8026 21.3155 31.7042 21.1958 31.5712 21.1107C31.4382 21.0203 31.268 20.9751 31.0606 20.9751ZM36.2231 20.2331C36.2869 20.2331 36.3614 20.2358 36.4465 20.2411C36.5316 20.2464 36.6034 20.257 36.6619 20.273L36.5741 21.2065C36.5262 21.1958 36.4624 21.1879 36.3826 21.1825C36.3082 21.1719 36.2417 21.1666 36.1832 21.1666C36.0236 21.1666 35.8694 21.1932 35.7204 21.2464C35.5768 21.2942 35.4465 21.3687 35.3295 21.4698C35.2178 21.5655 35.1274 21.6905 35.0582 21.8447C34.9944 21.999 34.9625 22.1825 34.9625 22.3953V24.6372H33.9572V20.3129H34.7311L34.8747 21.0629H34.9226C35.0077 20.9086 35.1141 20.7703 35.2417 20.648C35.3694 20.5203 35.5156 20.4193 35.6805 20.3448C35.8507 20.2703 36.0316 20.2331 36.2231 20.2331ZM41.2512 18.9406C41.7512 18.9406 42.1634 19.0018 42.4879 19.1241C42.8124 19.2464 43.0544 19.4326 43.2139 19.6826C43.3735 19.9273 43.4533 20.2384 43.4533 20.6161C43.4533 20.8927 43.4001 21.1293 43.2937 21.3261C43.1927 21.5229 43.0597 21.6878 42.8948 21.8208C42.7299 21.9485 42.5517 22.0522 42.3602 22.132L43.9958 24.6372H42.8469L41.4826 22.3873H40.6529V24.6372H39.6316V18.9406H41.2512ZM41.1874 19.7943H40.6529V21.5495H41.2193C41.5012 21.5495 41.7299 21.515 41.9055 21.4458C42.081 21.3767 42.2087 21.2756 42.2884 21.1426C42.3735 21.0097 42.4161 20.8448 42.4161 20.648C42.4161 20.4405 42.3709 20.2756 42.2805 20.1533C42.19 20.0257 42.0544 19.9352 41.8736 19.882C41.698 19.8235 41.4693 19.7943 41.1874 19.7943ZM46.4331 20.2331C46.8214 20.2331 47.1538 20.3129 47.4304 20.4725C47.7123 20.6267 47.9304 20.8501 48.0847 21.1426C48.2389 21.4299 48.316 21.7809 48.316 22.1958V22.7064H45.4598C45.4704 23.1 45.5794 23.4059 45.7869 23.6239C45.9943 23.8367 46.2815 23.9431 46.6485 23.9431C46.9304 23.9431 47.1804 23.9165 47.3985 23.8633C47.6219 23.8048 47.8506 23.7223 48.0847 23.616V24.4218C47.8719 24.5228 47.6512 24.5973 47.4225 24.6452C47.1937 24.6931 46.9198 24.717 46.6007 24.717C46.1805 24.717 45.8055 24.6372 45.4757 24.4776C45.1513 24.3127 44.8959 24.0654 44.7098 23.7356C44.5289 23.4059 44.4385 22.9963 44.4385 22.507C44.4385 22.0123 44.521 21.5974 44.6858 21.2623C44.856 20.9219 45.0901 20.6666 45.3879 20.4964C45.6858 20.3209 46.0342 20.2331 46.4331 20.2331ZM46.4331 20.9751C46.1672 20.9751 45.9491 21.0629 45.7789 21.2384C45.614 21.4086 45.5156 21.6639 45.4837 22.0043H47.3427C47.3427 21.8022 47.3081 21.624 47.2389 21.4698C47.1751 21.3155 47.0767 21.1958 46.9437 21.1107C46.8108 21.0203 46.6406 20.9751 46.4331 20.9751ZM51.6036 20.2331C52.1089 20.2331 52.5158 20.4219 52.8243 20.7996C53.1328 21.1719 53.2871 21.7277 53.2871 22.4671C53.2871 22.9564 53.2152 23.3686 53.0716 23.7037C52.928 24.0388 52.7286 24.2915 52.4733 24.4617C52.2179 24.6319 51.9201 24.717 51.5797 24.717C51.3722 24.717 51.1887 24.6904 51.0291 24.6372C50.8696 24.5787 50.7339 24.5069 50.6222 24.4218C50.5106 24.3314 50.4148 24.2356 50.335 24.1346H50.2712C50.2925 24.2303 50.3084 24.3393 50.3191 24.4617C50.3297 24.5787 50.335 24.6904 50.335 24.7968V26.552H49.3297V20.3129H50.1435L50.2872 20.8873H50.335C50.4148 20.765 50.5106 20.656 50.6222 20.5602C50.7393 20.4592 50.8776 20.3794 51.0371 20.3209C51.202 20.2624 51.3908 20.2331 51.6036 20.2331ZM51.3164 21.0469C51.0823 21.0469 50.8935 21.0948 50.7499 21.1905C50.6063 21.2809 50.5026 21.4219 50.4387 21.6134C50.3749 21.8049 50.3403 22.0442 50.335 22.3314V22.4591C50.335 22.7676 50.3643 23.0282 50.4228 23.241C50.4866 23.4537 50.5903 23.616 50.7339 23.7277C50.8829 23.8394 51.0823 23.8952 51.3323 23.8952C51.5451 23.8952 51.718 23.8367 51.8509 23.7197C51.9892 23.6027 52.0903 23.4378 52.1541 23.225C52.2233 23.0069 52.2578 22.749 52.2578 22.4511C52.2578 22.0043 52.1807 21.6586 52.0265 21.4139C51.8775 21.1692 51.6408 21.0469 51.3164 21.0469ZM58.1856 22.4671C58.1856 22.8288 58.1378 23.1479 58.042 23.4245C57.9463 23.7011 57.808 23.9378 57.6271 24.1346C57.4516 24.326 57.2335 24.4723 56.9729 24.5734C56.7176 24.6691 56.433 24.717 56.1192 24.717C55.8214 24.717 55.5474 24.6691 55.2974 24.5734C55.0474 24.4723 54.8294 24.326 54.6432 24.1346C54.4624 23.9378 54.3214 23.7011 54.2203 23.4245C54.1193 23.1479 54.0688 22.8288 54.0688 22.4671C54.0688 21.9884 54.1512 21.5841 54.3161 21.2543C54.481 20.9192 54.7177 20.6666 55.0262 20.4964C55.34 20.3209 55.7097 20.2331 56.1352 20.2331C56.5394 20.2331 56.8931 20.3209 57.1963 20.4964C57.5048 20.6666 57.7468 20.9192 57.9224 21.2543C58.0979 21.5841 58.1856 21.9884 58.1856 22.4671ZM55.098 22.4671C55.098 22.7702 55.1325 23.0309 55.2017 23.249C55.2762 23.4617 55.3879 23.6239 55.5368 23.7356C55.691 23.8473 55.8878 23.9032 56.1272 23.9032C56.3719 23.9032 56.5687 23.8473 56.7176 23.7356C56.8719 23.6239 56.9836 23.4617 57.0527 23.249C57.1218 23.0309 57.1564 22.7702 57.1564 22.4671C57.1564 22.1586 57.1192 21.9006 57.0447 21.6932C56.9756 21.4804 56.8639 21.3208 56.7096 21.2144C56.5607 21.1027 56.3666 21.0469 56.1272 21.0469C55.7655 21.0469 55.5022 21.1692 55.3373 21.4139C55.1778 21.6586 55.098 22.0096 55.098 22.4671ZM61.4908 20.2331C61.5546 20.2331 61.6291 20.2358 61.7142 20.2411C61.7993 20.2464 61.8711 20.257 61.9296 20.273L61.8418 21.2065C61.794 21.1958 61.7301 21.1879 61.6504 21.1825C61.5759 21.1719 61.5094 21.1666 61.4509 21.1666C61.2913 21.1666 61.1371 21.1932 60.9881 21.2464C60.8445 21.2942 60.7142 21.3687 60.5972 21.4698C60.4855 21.5655 60.3951 21.6905 60.3259 21.8447C60.2621 21.999 60.2302 22.1825 60.2302 22.3953V24.6372H59.2249V20.3129H59.9988L60.1424 21.0629H60.1903C60.2754 20.9086 60.3818 20.7703 60.5094 20.648C60.6371 20.5203 60.7834 20.4193 60.9482 20.3448C61.1185 20.2703 61.2993 20.2331 61.4908 20.2331ZM64.4065 23.9112C64.5342 23.9112 64.6565 23.9005 64.7735 23.8793C64.8906 23.8527 64.9996 23.8234 65.1007 23.7915V24.5415C64.9943 24.5893 64.856 24.6292 64.6858 24.6611C64.5156 24.6984 64.3374 24.717 64.1512 24.717C63.9065 24.717 63.6832 24.6771 63.481 24.5973C63.2842 24.5122 63.1247 24.3686 63.0023 24.1665C62.8853 23.9644 62.8268 23.6825 62.8268 23.3208V21.0708H62.2444V20.632L62.8826 20.281L63.2018 19.3634H63.8321V20.3129H65.0608V21.0708H63.8321V23.3128C63.8321 23.5149 63.8853 23.6665 63.9917 23.7676C64.098 23.8633 64.2363 23.9112 64.4065 23.9112Z" fill="#2E2E2E"/>
<path d="M226.466 170.996H24.123V40.0165" stroke="#6E6E6E" stroke-width="0.443248"/>
<path d="M29.8862 68.3812C29.8862 63.4852 33.8552 59.5162 38.7512 59.5162H39.1944C44.0904 59.5162 48.0594 63.4852 48.0594 68.3812V167.225H29.8862V68.3812Z" fill="#ECECEC"/>
<path d="M38.9434 48.1626C39.1308 48.1626 39.2828 48.0107 39.2828 47.8232C39.2828 47.6358 39.1308 47.4838 38.9434 47.4838C38.7559 47.4838 38.6039 47.6358 38.6039 47.8232C38.6039 48.0107 38.7559 48.1626 38.9434 48.1626ZM39.007 90.9723L39.007 90.3377L38.8797 90.3377L38.8797 90.9723L39.007 90.9723ZM39.007 89.0687L39.007 87.7996L38.8797 87.7996L38.8797 89.0687L39.007 89.0687ZM39.007 86.5305L39.007 85.2614L38.8797 85.2614L38.8797 86.5305L39.007 86.5305ZM39.007 83.9923L39.007 82.7232L38.8797 82.7232L38.8797 83.9923L39.007 83.9923ZM39.007 81.4541L39.007 80.185L38.8797 80.185L38.8797 81.4541L39.007 81.4541ZM39.007 78.9159L39.007 77.6468L38.8797 77.6468L38.8797 78.9159L39.007 78.9159ZM39.007 76.3777L39.007 75.1087L38.8797 75.1087L38.8797 76.3777L39.007 76.3777ZM39.007 73.8396L39.007 72.5705L38.8797 72.5705L38.8797 73.8396L39.007 73.8396ZM39.007 71.3014L39.007 70.0323L38.8797 70.0323L38.8797 71.3014L39.007 71.3014ZM39.007 68.7632L39.007 67.4941L38.8797 67.4941L38.8797 68.7632L39.007 68.7632ZM39.007 66.225L39.007 64.9559L38.8797 64.9559L38.8797 66.225L39.007 66.225ZM39.007 63.6868L39.007 62.4178L38.8797 62.4178L38.8797 63.6868L39.007 63.6868ZM39.007 61.1487L39.007 59.8796L38.8797 59.8796L38.8797 61.1487L39.007 61.1487ZM39.007 58.6105L39.007 57.3414L38.8797 57.3414L38.8797 58.6105L39.007 58.6105ZM39.007 56.0723L39.007 54.8032L38.8797 54.8032L38.8797 56.0723L39.007 56.0723ZM39.007 53.5341L39.007 52.265L38.8797 52.265L38.8797 53.5341L39.007 53.5341ZM39.007 50.9959L39.007 49.7269L38.8797 49.7269L38.8797 50.9959L39.007 50.9959ZM39.007 48.4578L39.007 47.8232L38.8797 47.8232L38.8797 48.4578L39.007 48.4578Z" fill="#787878"/>
<circle cx="39.0061" cy="47.7569" r="1.59104" fill="#6E6E6E"/>
<rect x="42.4897" y="43.3979" width="12.8782" height="7.244" rx="1.60978" fill="#E2E2E2"/>
<mask id="path-8-inside-1_539_17170" fill="white">
<path d="M29.8853 100.073C29.8853 95.0543 33.9535 90.9861 38.9718 90.9861V90.9861C43.9902 90.9861 48.0584 95.0543 48.0584 100.073V167.225H29.8853V100.073Z"/>
</mask>
<path d="M29.8853 100.073C29.8853 95.0543 33.9535 90.9861 38.9718 90.9861V90.9861C43.9902 90.9861 48.0584 95.0543 48.0584 100.073V167.225H29.8853V100.073Z" fill="#F1E1B4"/>
<path d="M29.442 100.073C29.442 94.8095 33.7087 90.5428 38.9718 90.5428H38.9718C44.235 90.5428 48.5017 94.8095 48.5017 100.073L47.6152 100.073C47.6152 95.2991 43.7454 91.4293 38.9718 91.4293H38.9718C34.1983 91.4293 30.3285 95.2991 30.3285 100.073L29.442 100.073ZM48.0584 167.225H29.8853H48.0584ZM29.442 167.225V100.073C29.442 94.8095 33.7087 90.5428 38.9718 90.5428L38.9718 91.4293C34.1983 91.4293 30.3285 95.2991 30.3285 100.073V167.225H29.442ZM38.9718 90.5428C44.235 90.5428 48.5017 94.8095 48.5017 100.073V167.225H47.6152V100.073C47.6152 95.2991 43.7454 91.4293 38.9718 91.4293L38.9718 90.5428Z" fill="#EAC762" mask="url(#path-8-inside-1_539_17170)"/>
<path d="M54.7056 68.3812C54.7056 63.4852 58.6745 59.5162 63.5705 59.5162H64.0138C68.9097 59.5162 72.8787 63.4852 72.8787 68.3812V167.225H54.7056V68.3812Z" fill="#ECECEC"/>
<path d="M63.5698 48.337C63.7573 48.337 63.9092 48.185 63.9092 47.9976C63.9092 47.8101 63.7573 47.6582 63.5698 47.6582C63.3824 47.6582 63.2304 47.8101 63.2304 47.9976C63.2304 48.185 63.3824 48.337 63.5698 48.337ZM63.6335 119.804L63.6335 119.163L63.5062 119.163L63.5062 119.804L63.6335 119.804ZM63.6335 117.88L63.6335 116.598L63.5062 116.598L63.5062 117.88L63.6335 117.88ZM63.6335 115.316L63.6335 114.034L63.5062 114.034L63.5062 115.316L63.6335 115.316ZM63.6335 112.751L63.6335 111.469L63.5062 111.469L63.5062 112.751L63.6335 112.751ZM63.6335 110.187L63.6335 108.905L63.5062 108.905L63.5062 110.187L63.6335 110.187ZM63.6335 107.622L63.6335 106.34L63.5062 106.34L63.5062 107.622L63.6335 107.622ZM63.6335 105.058L63.6335 103.776L63.5062 103.776L63.5062 105.058L63.6335 105.058ZM63.6335 102.493L63.6335 101.211L63.5062 101.211L63.5062 102.493L63.6335 102.493ZM63.6335 99.9288L63.6335 98.6466L63.5062 98.6466L63.5062 99.9288L63.6335 99.9288ZM63.6335 97.3643L63.6335 96.0821L63.5062 96.0821L63.5062 97.3643L63.6335 97.3643ZM63.6335 94.7998L63.6335 93.5175L63.5062 93.5175L63.5062 94.7998L63.6335 94.7998ZM63.6335 92.2353L63.6335 90.953L63.5062 90.953L63.5062 92.2353L63.6335 92.2353ZM63.6335 89.6708L63.6335 88.3885L63.5062 88.3885L63.5062 89.6708L63.6335 89.6708ZM63.6335 87.1063L63.6335 85.824L63.5062 85.824L63.5062 87.1063L63.6335 87.1063ZM63.6335 84.5418L63.6335 83.2595L63.5062 83.2595L63.5062 84.5418L63.6335 84.5418ZM63.6335 81.9773L63.6335 80.695L63.5062 80.695L63.5062 81.9773L63.6335 81.9773ZM63.6335 79.4128L63.6335 78.1305L63.5062 78.1305L63.5062 79.4128L63.6335 79.4128ZM63.6335 76.8483L63.6335 75.566L63.5062 75.566L63.5062 76.8483L63.6335 76.8483ZM63.6335 74.2838L63.6335 73.0015L63.5062 73.0015L63.5062 74.2838L63.6335 74.2838ZM63.6335 71.7193L63.6335 70.437L63.5062 70.437L63.5062 71.7193L63.6335 71.7193ZM63.6335 69.1547L63.6335 67.8725L63.5062 67.8725L63.5062 69.1547L63.6335 69.1547ZM63.6335 66.5902L63.6335 65.308L63.5062 65.308L63.5062 66.5902L63.6335 66.5902ZM63.6335 64.0257L63.6335 62.7435L63.5062 62.7435L63.5062 64.0257L63.6335 64.0257ZM63.6335 61.4612L63.6335 60.179L63.5062 60.179L63.5062 61.4612L63.6335 61.4612ZM63.6335 58.8967L63.6335 57.6145L63.5062 57.6145L63.5062 58.8967L63.6335 58.8967ZM63.6335 56.3322L63.6335 55.05L63.5062 55.05L63.5062 56.3322L63.6335 56.3322ZM63.6335 53.7677L63.6335 52.4855L63.5062 52.4855L63.5062 53.7677L63.6335 53.7677ZM63.6335 51.2032L63.6335 49.921L63.5062 49.921L63.5062 51.2032L63.6335 51.2032ZM63.6335 48.6387L63.6335 47.9976L63.5062 47.9976L63.5062 48.6387L63.6335 48.6387Z" fill="#787878"/>
<circle cx="63.8308" cy="47.7569" r="1.59104" fill="#6E6E6E"/>
<rect x="67.4424" y="43.3979" width="12.8782" height="7.244" rx="1.60978" fill="#E2E2E2"/>
<mask id="path-14-inside-2_539_17170" fill="white">
<path d="M54.7056 127.558C54.7056 122.54 58.7738 118.472 63.7921 118.472V118.472C68.8105 118.472 72.8787 122.54 72.8787 127.558V167.229H54.7056V127.558Z"/>
</mask>
<path d="M54.7056 127.558C54.7056 122.54 58.7738 118.472 63.7921 118.472V118.472C68.8105 118.472 72.8787 122.54 72.8787 127.558V167.229H54.7056V127.558Z" fill="#F1B6A3"/>
<path d="M54.2623 127.558C54.2623 122.295 58.529 118.029 63.7921 118.029H63.7921C69.0553 118.029 73.322 122.295 73.322 127.558L72.4355 127.558C72.4355 122.785 68.5657 118.915 63.7921 118.915H63.7921C59.0186 118.915 55.1488 122.785 55.1488 127.558L54.2623 127.558ZM72.8787 167.229H54.7056H72.8787ZM54.2623 167.229V127.558C54.2623 122.295 58.529 118.029 63.7921 118.029L63.7921 118.915C59.0186 118.915 55.1488 122.785 55.1488 127.558V167.229H54.2623ZM63.7921 118.029C69.0553 118.029 73.322 122.295 73.322 127.558V167.229H72.4355V127.558C72.4355 122.785 68.5657 118.915 63.7921 118.915L63.7921 118.029Z" fill="#F5825D" mask="url(#path-14-inside-2_539_17170)"/>
<path d="M79.5283 68.3812C79.5283 63.4852 83.4973 59.5162 88.3933 59.5162H88.8365C93.7325 59.5162 97.7015 63.4852 97.7015 68.3812V167.225H79.5283V68.3812Z" fill="#ECECEC"/>
<path d="M88.3945 48.3386C88.582 48.3386 88.734 48.1867 88.734 47.9992C88.734 47.8117 88.582 47.6598 88.3945 47.6598C88.2071 47.6598 88.0551 47.8117 88.0551 47.9992C88.0551 48.1867 88.2071 48.3386 88.3945 48.3386ZM88.4582 149.946L88.4582 149.309L88.3309 149.309L88.3309 149.946L88.4582 149.946ZM88.4582 148.035L88.4582 146.76L88.3309 146.76L88.3309 148.035L88.4582 148.035ZM88.4582 145.486L88.4582 144.212L88.3309 144.212L88.3309 145.486L88.4582 145.486ZM88.4582 142.937L88.4582 141.663L88.3309 141.663L88.3309 142.937L88.4582 142.937ZM88.4582 140.389L88.4582 139.114L88.3309 139.114L88.3309 140.389L88.4582 140.389ZM88.4582 137.84L88.4582 136.566L88.3309 136.566L88.3309 137.84L88.4582 137.84ZM88.4582 135.291L88.4582 134.017L88.3309 134.017L88.3309 135.291L88.4582 135.291ZM88.4582 132.743L88.4582 131.468L88.3309 131.468L88.3309 132.743L88.4582 132.743ZM88.4582 130.194L88.4582 128.92L88.3309 128.92L88.3309 130.194L88.4582 130.194ZM88.4582 127.645L88.4582 126.371L88.3309 126.371L88.3309 127.645L88.4582 127.645ZM88.4582 125.097L88.4582 123.822L88.3309 123.822L88.3309 125.097L88.4582 125.097ZM88.4582 122.548L88.4582 121.274L88.3309 121.274L88.3309 122.548L88.4582 122.548ZM88.4582 119.999L88.4582 118.725L88.3309 118.725L88.3309 119.999L88.4582 119.999ZM88.4582 117.451L88.4582 116.176L88.3309 116.176L88.3309 117.451L88.4582 117.451ZM88.4582 114.902L88.4582 113.628L88.3309 113.628L88.3309 114.902L88.4582 114.902ZM88.4582 112.353L88.4582 111.079L88.3309 111.079L88.3309 112.353L88.4582 112.353ZM88.4582 109.805L88.4582 108.53L88.3309 108.53L88.3309 109.805L88.4582 109.805ZM88.4582 107.256L88.4582 105.982L88.3309 105.982L88.3309 107.256L88.4582 107.256ZM88.4582 104.707L88.4582 103.433L88.3309 103.433L88.3309 104.707L88.4582 104.707ZM88.4582 102.159L88.4582 100.884L88.3309 100.884L88.3309 102.159L88.4582 102.159ZM88.4582 99.6098L88.4582 98.3355L88.3309 98.3355L88.3309 99.6098L88.4582 99.6098ZM88.4582 97.0612L88.4582 95.7868L88.3309 95.7868L88.3309 97.0612L88.4582 97.0612ZM88.4582 94.5125L88.4582 93.2382L88.3309 93.2382L88.3309 94.5125L88.4582 94.5125ZM88.4582 91.9638L88.4582 90.6895L88.3309 90.6895L88.3309 91.9638L88.4582 91.9638ZM88.4582 89.4151L88.4582 88.1408L88.3309 88.1408L88.3309 89.4151L88.4582 89.4151ZM88.4582 86.8665L88.4582 85.5921L88.3309 85.5921L88.3309 86.8665L88.4582 86.8665ZM88.4582 84.3178L88.4582 83.0435L88.3309 83.0435L88.3309 84.3178L88.4582 84.3178ZM88.4582 81.7691L88.4582 80.4948L88.3309 80.4948L88.3309 81.7691L88.4582 81.7691ZM88.4582 79.2204L88.4582 77.9461L88.3309 77.9461L88.3309 79.2204L88.4582 79.2204ZM88.4582 76.6718L88.4582 75.3974L88.3309 75.3974L88.3309 76.6718L88.4582 76.6718ZM88.4582 74.1231L88.4582 72.8487L88.3309 72.8487L88.3309 74.1231L88.4582 74.1231ZM88.4582 71.5744L88.4582 70.3001L88.3309 70.3001L88.3309 71.5744L88.4582 71.5744ZM88.4582 69.0257L88.4582 67.7514L88.3309 67.7514L88.3309 69.0257L88.4582 69.0257ZM88.4582 66.4771L88.4582 65.2027L88.3309 65.2027L88.3309 66.4771L88.4582 66.4771ZM88.4582 63.9284L88.4582 62.654L88.3309 62.654L88.3309 63.9284L88.4582 63.9284ZM88.4582 61.3797L88.4582 60.1054L88.3309 60.1054L88.3309 61.3797L88.4582 61.3797ZM88.4582 58.831L88.4582 57.5567L88.3309 57.5567L88.3309 58.831L88.4582 58.831ZM88.4582 56.2824L88.4582 55.008L88.3309 55.008L88.3309 56.2824L88.4582 56.2824ZM88.4582 53.7337L88.4582 52.4593L88.3309 52.4593L88.3309 53.7337L88.4582 53.7337ZM88.4582 51.185L88.4582 49.9107L88.3309 49.9107L88.3309 51.185L88.4582 51.185ZM88.4582 48.6363L88.4582 47.9992L88.3309 47.9992L88.3309 48.6363L88.4582 48.6363Z" fill="#787878"/>
<circle cx="88.6555" cy="47.7569" r="1.59104" fill="#6E6E6E"/>
<rect x="92.396" y="43.3979" width="12.8782" height="7.244" rx="1.60978" fill="#E2E2E2"/>
<mask id="path-20-inside-3_539_17170" fill="white">
<path d="M79.5293 157.254C79.5293 152.236 83.5975 148.168 88.6159 148.168V148.168C93.6343 148.168 97.7025 152.236 97.7025 157.254V167.227H79.5293V157.254Z"/>
</mask>
<path d="M79.5293 157.254C79.5293 152.236 83.5975 148.168 88.6159 148.168V148.168C93.6343 148.168 97.7025 152.236 97.7025 157.254V167.227H79.5293V157.254Z" fill="#F5A7B8"/>
<path d="M79.086 157.254C79.086 151.991 83.3527 147.724 88.6159 147.724H88.6159C93.8791 147.724 98.1457 151.991 98.1457 157.254L97.2592 157.254C97.2592 152.481 93.3895 148.611 88.6159 148.611H88.6159C83.8423 148.611 79.9725 152.481 79.9725 157.254L79.086 157.254ZM97.7025 167.227H79.5293H97.7025ZM79.086 167.227V157.254C79.086 151.991 83.3527 147.724 88.6159 147.724L88.6159 148.611C83.8423 148.611 79.9725 152.481 79.9725 157.254V167.227H79.086ZM88.6159 147.724C93.8791 147.724 98.1457 151.991 98.1457 157.254V167.227H97.2592V157.254C97.2592 152.481 93.3895 148.611 88.6159 148.611L88.6159 147.724Z" fill="#FF6384" mask="url(#path-20-inside-3_539_17170)"/>
<path d="M104.351 68.3812C104.351 63.4852 108.32 59.5162 113.216 59.5162H113.659C118.555 59.5162 122.524 63.4852 122.524 68.3812V167.225H104.351V68.3812Z" fill="#ECECEC"/>
<path d="M113.419 48.1626C113.607 48.1626 113.759 48.0107 113.759 47.8232C113.759 47.6358 113.607 47.4838 113.419 47.4838C113.232 47.4838 113.08 47.6358 113.08 47.8232C113.08 48.0107 113.232 48.1626 113.419 48.1626ZM113.483 90.9723L113.483 90.3377L113.356 90.3377L113.356 90.9723L113.483 90.9723ZM113.483 89.0687L113.483 87.7996L113.356 87.7996L113.356 89.0687L113.483 89.0687ZM113.483 86.5305L113.483 85.2614L113.356 85.2614L113.356 86.5305L113.483 86.5305ZM113.483 83.9923L113.483 82.7232L113.356 82.7232L113.356 83.9923L113.483 83.9923ZM113.483 81.4541L113.483 80.185L113.356 80.185L113.356 81.4541L113.483 81.4541ZM113.483 78.9159L113.483 77.6468L113.356 77.6468L113.356 78.9159L113.483 78.9159ZM113.483 76.3777L113.483 75.1087L113.356 75.1087L113.356 76.3777L113.483 76.3777ZM113.483 73.8396L113.483 72.5705L113.356 72.5705L113.356 73.8396L113.483 73.8396ZM113.483 71.3014L113.483 70.0323L113.356 70.0323L113.356 71.3014L113.483 71.3014ZM113.483 68.7632L113.483 67.4941L113.356 67.4941L113.356 68.7632L113.483 68.7632ZM113.483 66.225L113.483 64.9559L113.356 64.9559L113.356 66.225L113.483 66.225ZM113.483 63.6868L113.483 62.4178L113.356 62.4178L113.356 63.6868L113.483 63.6868ZM113.483 61.1487L113.483 59.8796L113.356 59.8796L113.356 61.1487L113.483 61.1487ZM113.483 58.6105L113.483 57.3414L113.356 57.3414L113.356 58.6105L113.483 58.6105ZM113.483 56.0723L113.483 54.8032L113.356 54.8032L113.356 56.0723L113.483 56.0723ZM113.483 53.5341L113.483 52.265L113.356 52.265L113.356 53.5341L113.483 53.5341ZM113.483 50.9959L113.483 49.7269L113.356 49.7269L113.356 50.9959L113.483 50.9959ZM113.483 48.4578L113.483 47.8232L113.356 47.8232L113.356 48.4578L113.483 48.4578Z" fill="#787878"/>
<circle cx="113.483" cy="47.7569" r="1.59104" fill="#6E6E6E"/>
<rect x="117.348" y="43.3979" width="12.8782" height="7.244" rx="1.60978" fill="#E2E2E2"/>
<mask id="path-26-inside-4_539_17170" fill="white">
<path d="M104.352 114.699C104.352 109.681 108.42 105.612 113.439 105.612V105.612C118.457 105.612 122.525 109.681 122.525 114.699V167.224H104.352V114.699Z"/>
</mask>
<path d="M104.352 114.699C104.352 109.681 108.42 105.612 113.439 105.612V105.612C118.457 105.612 122.525 109.681 122.525 114.699V167.224H104.352V114.699Z" fill="#D0A9E9"/>
<path d="M103.909 114.699C103.909 109.436 108.175 105.169 113.439 105.169H113.439C118.702 105.169 122.968 109.436 122.968 114.699L122.082 114.699C122.082 109.925 118.212 106.056 113.439 106.056H113.439C108.665 106.056 104.795 109.925 104.795 114.699L103.909 114.699ZM122.525 167.224H104.352H122.525ZM103.909 167.224V114.699C103.909 109.436 108.175 105.169 113.439 105.169L113.439 106.056C108.665 106.056 104.795 109.925 104.795 114.699V167.224H103.909ZM113.439 105.169C118.702 105.169 122.968 109.436 122.968 114.699V167.224H122.082V114.699C122.082 109.925 118.212 106.056 113.439 106.056L113.439 105.169Z" fill="#B566E7" mask="url(#path-26-inside-4_539_17170)"/>
<path d="M129.174 68.3812C129.174 63.4852 133.143 59.5162 138.039 59.5162H138.482C143.378 59.5162 147.347 63.4852 147.347 68.3812V167.225H129.174V68.3812Z" fill="#ECECEC"/>
<path d="M138.031 48.336C138.218 48.336 138.37 48.184 138.37 47.9965C138.37 47.8091 138.218 47.6571 138.031 47.6571C137.843 47.6571 137.691 47.8091 137.691 47.9965C137.691 48.184 137.843 48.336 138.031 48.336ZM138.094 112.711L138.094 112.064L137.967 112.064L137.967 112.711L138.094 112.711ZM138.094 110.769L138.094 109.475L137.967 109.475L137.967 110.769L138.094 110.769ZM138.094 108.181L138.094 106.886L137.967 106.886L137.967 108.181L138.094 108.181ZM138.094 105.592L138.094 104.298L137.967 104.298L137.967 105.592L138.094 105.592ZM138.094 103.004L138.094 101.709L137.967 101.709L137.967 103.004L138.094 103.004ZM138.094 100.415L138.094 99.1207L137.967 99.1207L137.967 100.415L138.094 100.415ZM138.094 97.8264L138.094 96.5322L137.967 96.5322L137.967 97.8264L138.094 97.8264ZM138.094 95.2379L138.094 93.9436L137.967 93.9436L137.967 95.2379L138.094 95.2379ZM138.094 92.6493L138.094 91.355L137.967 91.355L137.967 92.6493L138.094 92.6493ZM138.094 90.0607L138.094 88.7665L137.967 88.7665L137.967 90.0607L138.094 90.0607ZM138.094 87.4722L138.094 86.1779L137.967 86.1779L137.967 87.4722L138.094 87.4722ZM138.094 84.8836L138.094 83.5893L137.967 83.5893L137.967 84.8836L138.094 84.8836ZM138.094 82.295L138.094 81.0008L137.967 81.0008L137.967 82.295L138.094 82.295ZM138.094 79.7065L138.094 78.4122L137.967 78.4122L137.967 79.7065L138.094 79.7065ZM138.094 77.1179L138.094 75.8236L137.967 75.8236L137.967 77.1179L138.094 77.1179ZM138.094 74.5293L138.094 73.2351L137.967 73.2351L137.967 74.5293L138.094 74.5293ZM138.094 71.9408L138.094 70.6465L137.967 70.6465L137.967 71.9408L138.094 71.9408ZM138.094 69.3522L138.094 68.0579L137.967 68.0579L137.967 69.3522L138.094 69.3522ZM138.094 66.7636L138.094 65.4693L137.967 65.4693L137.967 66.7636L138.094 66.7636ZM138.094 64.1751L138.094 62.8808L137.967 62.8808L137.967 64.1751L138.094 64.1751ZM138.094 61.5865L138.094 60.2922L137.967 60.2922L137.967 61.5865L138.094 61.5865ZM138.094 58.9979L138.094 57.7036L137.967 57.7036L137.967 58.9979L138.094 58.9979ZM138.094 56.4093L138.094 55.1151L137.967 55.1151L137.967 56.4093L138.094 56.4093ZM138.094 53.8208L138.094 52.5265L137.967 52.5265L137.967 53.8208L138.094 53.8208ZM138.094 51.2322L138.094 49.9379L137.967 49.9379L137.967 51.2322L138.094 51.2322ZM138.094 48.6436L138.094 47.9965L137.967 47.9965L137.967 48.6436L138.094 48.6436Z" fill="#787878"/>
<circle cx="138.292" cy="47.7569" r="1.59104" fill="#6E6E6E"/>
<rect x="142.295" y="43.3979" width="12.8782" height="7.244" rx="1.60978" fill="#E2E2E2"/>
<mask id="path-32-inside-5_539_17170" fill="white">
<path d="M129.172 120.909C129.172 115.89 133.241 111.822 138.259 111.822V111.822C143.277 111.822 147.346 115.89 147.346 120.909V167.228H129.172V120.909Z"/>
</mask>
<path d="M129.172 120.909C129.172 115.89 133.241 111.822 138.259 111.822V111.822C143.277 111.822 147.346 115.89 147.346 120.909V167.228H129.172V120.909Z" fill="#91C7EB"/>
<path d="M128.729 120.909C128.729 115.645 132.996 111.379 138.259 111.379H138.259C143.522 111.379 147.789 115.645 147.789 120.909L146.902 120.909C146.902 116.135 143.033 112.265 138.259 112.265H138.259C133.485 112.265 129.616 116.135 129.616 120.909L128.729 120.909ZM147.346 167.228H129.172H147.346ZM128.729 167.228V120.909C128.729 115.645 132.996 111.379 138.259 111.379L138.259 112.265C133.485 112.265 129.616 116.135 129.616 120.909V167.228H128.729ZM138.259 111.379C143.522 111.379 147.789 115.645 147.789 120.909V167.228H146.902V120.909C146.902 116.135 143.033 112.265 138.259 112.265L138.259 111.379Z" fill="#36A2EB" mask="url(#path-32-inside-5_539_17170)"/>
<path d="M153.997 68.3812C153.997 63.4852 157.966 59.5162 162.862 59.5162H163.305C168.201 59.5162 172.17 63.4852 172.17 68.3812V167.225H153.997V68.3812Z" fill="#ECECEC"/>
<path d="M162.853 48.3348C163.04 48.3348 163.192 48.1828 163.192 47.9954C163.192 47.8079 163.04 47.6559 162.853 47.6559C162.666 47.6559 162.514 47.8079 162.514 47.9954C162.514 48.1828 162.666 48.3348 162.853 48.3348ZM162.917 105.618L162.917 104.991L162.789 104.991L162.789 105.618L162.917 105.618ZM162.917 103.739L162.917 102.486L162.789 102.486L162.789 103.739L162.917 103.739ZM162.917 101.233L162.917 99.9806L162.789 99.9806L162.789 101.233L162.917 101.233ZM162.917 98.7279L162.917 97.4753L162.789 97.4753L162.789 98.7279L162.917 98.7279ZM162.917 96.2226L162.917 94.97L162.789 94.97L162.789 96.2226L162.917 96.2226ZM162.917 93.7173L162.917 92.4647L162.789 92.4647L162.789 93.7173L162.917 93.7173ZM162.917 91.212L162.917 89.9593L162.789 89.9593L162.789 91.212L162.917 91.212ZM162.917 88.7067L162.917 87.454L162.789 87.454L162.789 88.7067L162.917 88.7067ZM162.917 86.2014L162.917 84.9487L162.789 84.9487L162.789 86.2014L162.917 86.2014ZM162.917 83.6961L162.917 82.4434L162.789 82.4434L162.789 83.6961L162.917 83.6961ZM162.917 81.1907L162.917 79.9381L162.789 79.9381L162.789 81.1907L162.917 81.1907ZM162.917 78.6854L162.917 77.4328L162.789 77.4328L162.789 78.6854L162.917 78.6854ZM162.917 76.1801L162.917 74.9275L162.789 74.9275L162.789 76.1801L162.917 76.1801ZM162.917 73.6748L162.917 72.4221L162.789 72.4221L162.789 73.6748L162.917 73.6748ZM162.917 71.1695L162.917 69.9168L162.789 69.9168L162.789 71.1695L162.917 71.1695ZM162.917 68.6642L162.917 67.4115L162.789 67.4115L162.789 68.6642L162.917 68.6642ZM162.917 66.1589L162.917 64.9062L162.789 64.9062L162.789 66.1589L162.917 66.1589ZM162.917 63.6536L162.917 62.4009L162.789 62.4009L162.789 63.6536L162.917 63.6536ZM162.917 61.1483L162.917 59.8956L162.789 59.8956L162.789 61.1483L162.917 61.1483ZM162.917 58.6429L162.917 57.3903L162.789 57.3903L162.789 58.6429L162.917 58.6429ZM162.917 56.1376L162.917 54.885L162.789 54.885L162.789 56.1376L162.917 56.1376ZM162.917 53.6323L162.917 52.3797L162.789 52.3797L162.789 53.6323L162.917 53.6323ZM162.917 51.127L162.917 49.8744L162.789 49.8744L162.789 51.127L162.917 51.127ZM162.917 48.6217L162.917 47.9954L162.789 47.9954L162.789 48.6217L162.917 48.6217Z" fill="#787878"/>
<circle cx="163.114" cy="47.7569" r="1.59104" fill="#6E6E6E"/>
<rect x="166.443" y="43.3979" width="12.8782" height="7.244" rx="1.60978" fill="#E2E2E2"/>
<mask id="path-38-inside-6_539_17170" fill="white">
<path d="M153.996 111.599C153.996 106.581 158.064 102.512 163.083 102.512V102.512C168.101 102.512 172.169 106.581 172.169 111.599V167.226H153.996V111.599Z"/>
</mask>
<path d="M153.996 111.599C153.996 106.581 158.064 102.512 163.083 102.512V102.512C168.101 102.512 172.169 106.581 172.169 111.599V167.226H153.996V111.599Z" fill="#B1E3EA"/>
<path d="M153.553 111.599C153.553 106.336 157.819 102.069 163.083 102.069H163.083C168.346 102.069 172.612 106.336 172.612 111.599L171.726 111.599C171.726 106.825 167.856 102.956 163.083 102.956H163.083C158.309 102.956 154.439 106.825 154.439 111.599L153.553 111.599ZM172.169 167.226H153.996H172.169ZM153.553 167.226V111.599C153.553 106.336 157.819 102.069 163.083 102.069L163.083 102.956C158.309 102.956 154.439 106.825 154.439 111.599V167.226H153.553ZM163.083 102.069C168.346 102.069 172.612 106.336 172.612 111.599V167.226H171.726V111.599C171.726 106.825 167.856 102.956 163.083 102.956L163.083 102.069Z" fill="#75DAE8" mask="url(#path-38-inside-6_539_17170)"/>
<path d="M178.819 68.3812C178.819 63.4852 182.788 59.5162 187.684 59.5162H188.127C193.023 59.5162 196.992 63.4852 196.992 68.3812V167.225H178.819V68.3812Z" fill="#ECECEC"/>
<path d="M187.875 48.1611C188.063 48.1611 188.215 48.0091 188.215 47.8217C188.215 47.6342 188.063 47.4822 187.875 47.4822C187.688 47.4822 187.536 47.6342 187.536 47.8217C187.536 48.0091 187.688 48.1611 187.875 48.1611ZM187.939 145.29L187.939 144.649L187.812 144.649L187.812 145.29L187.939 145.29ZM187.939 143.366L187.939 142.084L187.812 142.084L187.812 143.366L187.939 143.366ZM187.939 140.801L187.939 139.519L187.812 139.519L187.812 140.801L187.939 140.801ZM187.939 138.236L187.939 136.954L187.812 136.954L187.812 138.236L187.939 138.236ZM187.939 135.671L187.939 134.389L187.812 134.389L187.812 135.671L187.939 135.671ZM187.939 133.106L187.939 131.824L187.812 131.824L187.812 133.106L187.939 133.106ZM187.939 130.541L187.939 129.259L187.812 129.259L187.812 130.541L187.939 130.541ZM187.939 127.976L187.939 126.694L187.812 126.694L187.812 127.976L187.939 127.976ZM187.939 125.411L187.939 124.129L187.812 124.129L187.812 125.411L187.939 125.411ZM187.939 122.846L187.939 121.564L187.812 121.564L187.812 122.846L187.939 122.846ZM187.939 120.282L187.939 118.999L187.812 118.999L187.812 120.282L187.939 120.282ZM187.939 117.717L187.939 116.434L187.812 116.434L187.812 117.717L187.939 117.717ZM187.939 115.152L187.939 113.869L187.812 113.869L187.812 115.152L187.939 115.152ZM187.939 112.587L187.939 111.304L187.812 111.304L187.812 112.587L187.939 112.587ZM187.939 110.022L187.939 108.739L187.812 108.739L187.812 110.022L187.939 110.022ZM187.939 107.457L187.939 106.174L187.812 106.174L187.812 107.457L187.939 107.457ZM187.939 104.892L187.939 103.609L187.812 103.609L187.812 104.892L187.939 104.892ZM187.939 102.327L187.939 101.044L187.812 101.044L187.812 102.327L187.939 102.327ZM187.939 99.7619L187.939 98.4795L187.812 98.4795L187.812 99.7619L187.939 99.7619ZM187.939 97.197L187.939 95.9145L187.812 95.9145L187.812 97.197L187.939 97.197ZM187.939 94.632L187.939 93.3496L187.812 93.3496L187.812 94.632L187.939 94.632ZM187.939 92.0671L187.939 90.7846L187.812 90.7846L187.812 92.0671L187.939 92.0671ZM187.939 89.5021L187.939 88.2197L187.812 88.2197L187.812 89.5021L187.939 89.5021ZM187.939 86.9372L187.939 85.6547L187.812 85.6547L187.812 86.9372L187.939 86.9372ZM187.939 84.3722L187.939 83.0898L187.812 83.0898L187.812 84.3722L187.939 84.3722ZM187.939 81.8073L187.939 80.5248L187.812 80.5248L187.812 81.8073L187.939 81.8073ZM187.939 79.2423L187.939 77.9599L187.812 77.9599L187.812 79.2423L187.939 79.2423ZM187.939 76.6774L187.939 75.3949L187.812 75.3949L187.812 76.6774L187.939 76.6774ZM187.939 74.1124L187.939 72.8299L187.812 72.8299L187.812 74.1124L187.939 74.1124ZM187.939 71.5475L187.939 70.265L187.812 70.265L187.812 71.5475L187.939 71.5475ZM187.939 68.9825L187.939 67.7L187.812 67.7L187.812 68.9825L187.939 68.9825ZM187.939 66.4176L187.939 65.1351L187.812 65.1351L187.812 66.4176L187.939 66.4176ZM187.939 63.8526L187.939 62.5701L187.812 62.5701L187.812 63.8526L187.939 63.8526ZM187.939 61.2876L187.939 60.0052L187.812 60.0052L187.812 61.2876L187.939 61.2876ZM187.939 58.7227L187.939 57.4402L187.812 57.4402L187.812 58.7227L187.939 58.7227ZM187.939 56.1577L187.939 54.8753L187.812 54.8753L187.812 56.1577L187.939 56.1577ZM187.939 53.5928L187.939 52.3103L187.812 52.3103L187.812 53.5928L187.939 53.5928ZM187.939 51.0278L187.939 49.7453L187.812 49.7453L187.812 51.0278L187.939 51.0278ZM187.939 48.4629L187.939 47.8217L187.812 47.8217L187.812 48.4629L187.939 48.4629Z" fill="#787878"/>
<circle cx="187.938" cy="47.7569" r="1.59104" fill="#6E6E6E"/>
<rect x="191.396" y="43.3979" width="12.8782" height="7.244" rx="1.60978" fill="#E2E2E2"/>
<mask id="path-44-inside-7_539_17170" fill="white">
<path d="M178.819 143.068C178.819 138.05 182.887 133.982 187.905 133.982V133.982C192.924 133.982 196.992 138.05 196.992 143.068V167.225H178.819V143.068Z"/>
</mask>
<path d="M178.819 143.068C178.819 138.05 182.887 133.982 187.905 133.982V133.982C192.924 133.982 196.992 138.05 196.992 143.068V167.225H178.819V143.068Z" fill="#9FD6D5"/>
<path d="M178.376 143.068C178.376 137.805 182.642 133.538 187.905 133.538H187.905C193.169 133.538 197.435 137.805 197.435 143.068L196.549 143.068C196.549 138.295 192.679 134.425 187.905 134.425H187.905C183.132 134.425 179.262 138.295 179.262 143.068L178.376 143.068ZM196.992 167.225H178.819H196.992ZM178.376 167.225V143.068C178.376 137.805 182.642 133.538 187.905 133.538L187.905 134.425C183.132 134.425 179.262 138.295 179.262 143.068V167.225H178.376ZM187.905 133.538C193.169 133.538 197.435 137.805 197.435 143.068V167.225H196.549V143.068C196.549 138.295 192.679 134.425 187.905 134.425L187.905 133.538Z" fill="#53C1BE" mask="url(#path-44-inside-7_539_17170)"/>
<path d="M203.638 68.3812C203.638 63.4852 207.607 59.5162 212.503 59.5162H212.946C217.842 59.5162 221.811 63.4852 221.811 68.3812V167.225H203.638V68.3812Z" fill="#ECECEC"/>
<path d="M212.507 48.3365C212.695 48.3365 212.847 48.1845 212.847 47.9971C212.847 47.8096 212.695 47.6576 212.507 47.6576C212.32 47.6576 212.168 47.8096 212.168 47.9971C212.168 48.1845 212.32 48.3365 212.507 48.3365ZM212.571 116.257L212.571 115.625L212.444 115.625L212.444 116.257L212.571 116.257ZM212.571 114.361L212.571 113.097L212.444 113.097L212.444 114.361L212.571 114.361ZM212.571 111.833L212.571 110.569L212.444 110.569L212.444 111.833L212.571 111.833ZM212.571 109.305L212.571 108.041L212.444 108.041L212.444 109.305L212.571 109.305ZM212.571 106.777L212.571 105.513L212.444 105.513L212.444 106.777L212.571 106.777ZM212.571 104.248L212.571 102.984L212.444 102.984L212.444 104.248L212.571 104.248ZM212.571 101.72L212.571 100.456L212.444 100.456L212.444 101.72L212.571 101.72ZM212.571 99.1922L212.571 97.9281L212.444 97.9281L212.444 99.1922L212.571 99.1922ZM212.571 96.664L212.571 95.3999L212.444 95.3999L212.444 96.664L212.571 96.664ZM212.571 94.1359L212.571 92.8718L212.444 92.8718L212.444 94.1359L212.571 94.1359ZM212.571 91.6077L212.571 90.3436L212.444 90.3436L212.444 91.6077L212.571 91.6077ZM212.571 89.0796L212.571 87.8155L212.444 87.8155L212.444 89.0796L212.571 89.0796ZM212.571 86.5514L212.571 85.2873L212.444 85.2873L212.444 86.5514L212.571 86.5514ZM212.571 84.0232L212.571 82.7592L212.444 82.7592L212.444 84.0232L212.571 84.0232ZM212.571 81.4951L212.571 80.231L212.444 80.231L212.444 81.4951L212.571 81.4951ZM212.571 78.9669L212.571 77.7029L212.444 77.7029L212.444 78.9669L212.571 78.9669ZM212.571 76.4388L212.571 75.1747L212.444 75.1747L212.444 76.4388L212.571 76.4388ZM212.571 73.9106L212.571 72.6466L212.444 72.6466L212.444 73.9106L212.571 73.9106ZM212.571 71.3825L212.571 70.1184L212.444 70.1184L212.444 71.3825L212.571 71.3825ZM212.571 68.8543L212.571 67.5903L212.444 67.5903L212.444 68.8543L212.571 68.8543ZM212.571 66.3262L212.571 65.0621L212.444 65.0621L212.444 66.3262L212.571 66.3262ZM212.571 63.798L212.571 62.534L212.444 62.534L212.444 63.798L212.571 63.798ZM212.571 61.2699L212.571 60.0058L212.444 60.0058L212.444 61.2699L212.571 61.2699ZM212.571 58.7417L212.571 57.4776L212.444 57.4776L212.444 58.7417L212.571 58.7417ZM212.571 56.2136L212.571 54.9495L212.444 54.9495L212.444 56.2136L212.571 56.2136ZM212.571 53.6854L212.571 52.4213L212.444 52.4213L212.444 53.6854L212.571 53.6854ZM212.571 51.1573L212.571 49.8932L212.444 49.8932L212.444 51.1573L212.571 51.1573ZM212.571 48.6291L212.571 47.9971L212.444 47.9971L212.444 48.6291L212.571 48.6291Z" fill="#787878"/>
<circle cx="212.768" cy="47.7569" r="1.59104" fill="#6E6E6E"/>
<rect x="216.348" y="43.3979" width="12.8782" height="7.244" rx="1.60978" fill="#E2E2E2"/>
<mask id="path-50-inside-8_539_17170" fill="white">
<path d="M203.639 103.176C203.639 98.1576 207.707 94.0894 212.726 94.0894V94.0894C217.744 94.0894 221.812 98.1576 221.812 103.176V167.225H203.639V103.176Z"/>
</mask>
<path d="M203.639 103.176C203.639 98.1576 207.707 94.0894 212.726 94.0894V94.0894C217.744 94.0894 221.812 98.1576 221.812 103.176V167.225H203.639V103.176Z" fill="#BCDBB6"/>
<path d="M203.196 103.176C203.196 97.9128 207.463 93.6461 212.726 93.6461H212.726C217.989 93.6461 222.256 97.9128 222.256 103.176L221.369 103.176C221.369 98.4024 217.499 94.5326 212.726 94.5326H212.726C207.952 94.5326 204.082 98.4024 204.082 103.176L203.196 103.176ZM221.812 167.225H203.639H221.812ZM203.196 167.225V103.176C203.196 97.9128 207.463 93.6461 212.726 93.6461L212.726 94.5326C207.952 94.5326 204.082 98.4024 204.082 103.176V167.225H203.196ZM212.726 93.6461C217.989 93.6461 222.256 97.9128 222.256 103.176V167.225H221.369V103.176C221.369 98.4024 217.499 94.5326 212.726 94.5326L212.726 93.6461Z" fill="#8DCB81" mask="url(#path-50-inside-8_539_17170)"/>
<g clip-path="url(#clip0_539_17170)">
<rect x="24.2339" y="177.531" width="6.42709" height="6.42709" rx="0.775683" fill="#EAC762" stroke="#1D1D1D" stroke-width="0.221624"/>
<rect x="36.9771" y="177.525" width="29.7809" height="6.43911" rx="1.60978" fill="#E2E2E2"/>
<rect x="24.2339" y="190.828" width="6.42709" height="6.42709" rx="0.775683" fill="#B566E7" stroke="#1D1D1D" stroke-width="0.221624"/>
<rect x="36.9771" y="190.822" width="29.7809" height="6.43911" rx="1.60978" fill="#E2E2E2"/>
<rect x="24.2339" y="204.125" width="6.42709" height="6.42709" rx="0.775683" fill="#53C1BE" stroke="#1D1D1D" stroke-width="0.221624"/>
<rect x="36.9771" y="204.12" width="29.7809" height="6.43911" rx="1.60978" fill="#E2E2E2"/>
<rect x="81.9394" y="177.531" width="6.42709" height="6.42709" rx="0.775683" fill="#F5825D" stroke="#1D1D1D" stroke-width="0.221624"/>
<rect x="94.6826" y="177.525" width="29.7809" height="6.43911" rx="1.60978" fill="#E2E2E2"/>
<rect x="81.9394" y="190.828" width="6.42709" height="6.42709" rx="0.775683" fill="#36A2EB" stroke="#1D1D1D" stroke-width="0.221624"/>
<rect x="94.6826" y="190.822" width="29.7809" height="6.43911" rx="1.60978" fill="#E2E2E2"/>
<rect x="81.9394" y="204.125" width="6.42709" height="6.42709" rx="0.775683" fill="#8DCB81" stroke="#1D1D1D" stroke-width="0.221624"/>
<rect x="94.6826" y="204.12" width="29.7809" height="6.43911" rx="1.60978" fill="#E2E2E2"/>
<rect x="139.645" y="177.531" width="6.42709" height="6.42709" rx="0.775683" fill="#FF6384" stroke="#1D1D1D" stroke-width="0.221624"/>
<rect x="152.389" y="177.525" width="29.7809" height="6.43911" rx="1.60978" fill="#E2E2E2"/>
<rect x="139.645" y="190.828" width="6.42709" height="6.42709" rx="0.775683" fill="#75DAE8" stroke="#1D1D1D" stroke-width="0.221624"/>
<rect x="152.389" y="190.822" width="29.7809" height="6.43911" rx="1.60978" fill="#E2E2E2"/>
<path d="M155.074 209.015L154.117 206.324H154.099C154.102 206.383 154.107 206.463 154.113 206.563C154.119 206.664 154.123 206.772 154.126 206.887C154.129 207.002 154.13 207.116 154.13 207.228V209.015H153.696V205.85H154.379L155.287 208.39H155.305L156.24 205.85H156.923V209.015H156.457V207.202C156.457 207.098 156.459 206.992 156.462 206.883C156.468 206.77 156.472 206.665 156.475 206.568C156.481 206.47 156.485 206.391 156.488 206.329H156.471L155.487 209.015H155.074ZM159.817 207.818C159.817 208.016 159.791 208.192 159.737 208.345C159.684 208.499 159.609 208.629 159.511 208.735C159.414 208.842 159.296 208.923 159.157 208.979C159.018 209.032 158.861 209.059 158.687 209.059C158.527 209.059 158.379 209.032 158.244 208.979C158.108 208.923 157.989 208.842 157.889 208.735C157.791 208.629 157.715 208.499 157.658 208.345C157.602 208.192 157.574 208.014 157.574 207.813C157.574 207.55 157.619 207.327 157.707 207.144C157.799 206.961 157.929 206.822 158.097 206.727C158.269 206.63 158.47 206.581 158.7 206.581C158.919 206.581 159.111 206.63 159.276 206.727C159.445 206.822 159.576 206.961 159.671 207.144C159.768 207.327 159.817 207.552 159.817 207.818ZM158.057 207.818C158.057 207.995 158.08 208.149 158.124 208.279C158.168 208.406 158.238 208.503 158.332 208.571C158.427 208.639 158.548 208.673 158.696 208.673C158.843 208.673 158.965 208.639 159.059 208.571C159.154 208.503 159.223 208.406 159.267 208.279C159.312 208.149 159.334 207.995 159.334 207.818C159.334 207.635 159.31 207.481 159.263 207.357C159.219 207.233 159.149 207.138 159.055 207.073C158.963 207.005 158.842 206.971 158.691 206.971C158.47 206.971 158.309 207.045 158.208 207.193C158.108 207.341 158.057 207.549 158.057 207.818ZM161.592 206.581C161.633 206.581 161.679 206.584 161.729 206.59C161.779 206.593 161.821 206.597 161.853 206.603L161.805 207.042C161.772 207.033 161.734 207.026 161.689 207.02C161.645 207.014 161.604 207.011 161.565 207.011C161.477 207.011 161.391 207.029 161.308 207.064C161.228 207.097 161.156 207.146 161.091 207.211C161.026 207.273 160.974 207.35 160.936 207.441C160.9 207.533 160.883 207.638 160.883 207.756V209.015H160.413V206.626H160.785L160.847 207.051H160.865C160.915 206.965 160.976 206.887 161.047 206.816C161.117 206.745 161.199 206.689 161.29 206.648C161.382 206.603 161.482 206.581 161.592 206.581ZM163.149 206.581C163.359 206.581 163.539 206.626 163.69 206.714C163.84 206.8 163.955 206.924 164.035 207.087C164.118 207.249 164.159 207.441 164.159 207.663V207.92H162.555C162.561 208.165 162.624 208.353 162.745 208.483C162.87 208.613 163.042 208.678 163.264 208.678C163.418 208.678 163.554 208.664 163.672 208.638C163.793 208.608 163.917 208.565 164.044 208.509V208.899C163.926 208.953 163.805 208.992 163.681 209.019C163.56 209.046 163.415 209.059 163.246 209.059C163.016 209.059 162.812 209.013 162.635 208.922C162.457 208.83 162.318 208.694 162.218 208.514C162.12 208.331 162.072 208.106 162.072 207.84C162.072 207.571 162.116 207.344 162.205 207.157C162.296 206.971 162.422 206.829 162.581 206.732C162.744 206.631 162.933 206.581 163.149 206.581ZM163.149 206.945C162.98 206.945 162.844 206.999 162.741 207.109C162.641 207.218 162.581 207.373 162.564 207.574H163.69C163.69 207.45 163.67 207.341 163.632 207.246C163.593 207.152 163.534 207.078 163.455 207.024C163.375 206.971 163.273 206.945 163.149 206.945Z" fill="#1D1D1D"/>
<path d="M153.275 209.569H164.377V209.79H153.275V209.569Z" fill="#1D1D1D"/>
<path d="M171.491 206.897L169.94 205.346C169.897 205.304 169.836 205.289 169.778 205.305C169.721 205.321 169.676 205.367 169.662 205.425C169.647 205.482 169.665 205.544 169.707 205.585L170.973 206.848H168.041C167.949 206.848 167.875 206.923 167.875 207.015C167.875 207.106 167.949 207.181 168.041 207.181H170.971L169.707 208.444C169.676 208.475 169.658 208.517 169.658 208.562C169.658 208.606 169.676 208.648 169.707 208.679C169.738 208.711 169.781 208.729 169.825 208.728C169.869 208.728 169.911 208.71 169.942 208.679L171.494 207.128C171.558 207.063 171.558 206.958 171.494 206.893L171.491 206.897Z" fill="#1D1D1D"/>
</g>
</g>
<defs>
<filter id="filter0_d_539_17170" x="0.479635" y="0.693904" width="248.359" height="231.959" filterUnits="userSpaceOnUse" color-interpolation-filters="sRGB">
<feFlood flood-opacity="0" result="BackgroundImageFix"/>
<feColorMatrix in="SourceAlpha" type="matrix" values="0 0 0 0 0 0 0 0 0 0 0 0 0 0 0 0 0 0 127 0" result="hardAlpha"/>
<feOffset dx="0.804889" dy="2.41467"/>
<feGaussianBlur stdDeviation="4.02444"/>
<feComposite in2="hardAlpha" operator="out"/>
<feColorMatrix type="matrix" values="0 0 0 0 0.691667 0 0 0 0 0.691667 0 0 0 0 0.691667 0 0 0 1 0"/>
<feBlend mode="normal" in2="BackgroundImageFix" result="effect1_dropShadow_539_17170"/>
<feBlend mode="normal" in="SourceGraphic" in2="effect1_dropShadow_539_17170" result="shape"/>
</filter>
<clipPath id="clip0_539_17170">
<rect width="161.984" height="33.2436" fill="white" transform="translate(24.123 177.42)"/>
</clipPath>
</defs>
</svg>
